<svg width="2560" height="422" viewBox="0 0 2560 422" fill="none" xmlns="http://www.w3.org/2000/svg">
<path d="M0 421.047H2559.18V0H0V421.047Z" fill="#1B1B1B"/>
<path d="M2415.58 82.0103H2364.57V30.9946H2415.58V82.0103Z" fill="#FBB016"/>
<path d="M1854.35 82.9948H1905.36V31.9844H1854.35V82.9948Z" fill="#FBB016"/>
<path d="M1854.35 132.984H1905.36V81.9688H1854.35V132.984Z" fill="#FBB016"/>
<path d="M1839.52 82.9948H1788.51V31.9844H1839.52V82.9948Z" fill="#E20077"/>
<path d="M1839.52 132.984H1788.51V81.9686H1839.52V132.984ZM2430.42 82.0103H2481.43V30.9946H2430.42V82.0103Z" fill="#E20077"/>
<path d="M2430.42 131.995H2481.43V80.979H2430.42V131.995Z" fill="#E20077"/>
<path d="M2415.58 131.995H2364.57V80.979H2415.58V131.995Z" fill="#FBB016"/>
<path d="M351.979 21.2604H402.99V0H351.979V21.2604ZM453.948 21.2604H504.958V0H453.948V21.2604Z" fill="#5547FF"/>
<path d="M2058.28 34.0052H2109.29V0H2058.28V34.0052ZM2160.24 34.0052H2211.26V0H2160.24V34.0052Z" fill="#5547FF"/>
<path d="M2109.26 34.0052H2160.27V0H2109.26V34.0052Z" fill="#5547FF"/>
<path d="M2058.3 84.4844H2007.29V33.4688H2058.3V84.4844Z" fill="#5547FF"/>
<path d="M2109.29 84.4844H2058.28V33.4688H2109.29V84.4844ZM2160.24 84.4844H2211.26V33.4688H2160.24V84.4844Z" fill="#5547FF"/>
<path d="M2109.26 84.4844H2160.27V33.4688H2109.26V84.4844ZM2262.24 84.4844H2211.23V33.4688H2262.24V84.4844ZM1956.31 133.974H2007.32V82.9635H1956.31V133.974Z" fill="#5547FF"/>
<path d="M2058.3 133.974H2007.29V82.9634H2058.3V133.974ZM2109.26 133.974H2160.27V82.9634H2109.26V133.974ZM2262.24 133.974H2211.23V82.9634H2262.24V133.974Z" fill="#5547FF"/>
<path d="M2313.23 133.974H2262.21V82.9634H2313.23V133.974ZM1956.31 184.453H2007.32V133.443H1956.31V184.453ZM2109.29 184.453H2058.28V133.443H2109.29V184.453ZM2160.24 184.453H2211.26V133.443H2160.24V184.453Z" fill="#5547FF"/>
<path d="M2109.26 184.453H2160.27V133.443H2109.26V184.453ZM2313.23 184.453H2262.21V133.443H2313.23V184.453Z" fill="#5547FF"/>
<path d="M2109.26 234.932H2160.27V183.922H2109.26V234.932Z" fill="#5547FF"/>
<path d="M1956.31 285.411H2007.32V234.401H1956.31V285.411Z" fill="#5547FF"/>
<path d="M1905.32 285.411H1956.33V234.401H1905.32V285.411ZM2109.29 285.411H2058.28V234.401H2109.29V285.411ZM2160.24 285.411H2211.26V234.401H2160.24V285.411Z" fill="#5547FF"/>
<path d="M2109.26 285.411H2160.27V234.401H2109.26V285.411ZM2313.23 285.411H2262.21V234.401H2313.23V285.411Z" fill="#5547FF"/>
<path d="M2313.2 285.411H2364.21V234.401H2313.2V285.411Z" fill="#5547FF"/>
<path d="M1905.35 334.906H1854.33V283.891H1905.35V334.906ZM1956.31 334.906H2007.32V283.891H1956.31V334.906Z" fill="#5547FF"/>
<path d="M1905.32 334.906H1956.33V283.891H1905.32V334.906ZM2058.3 334.906H2007.29V283.891H2058.3V334.906Z" fill="#5547FF"/>
<path d="M2109.29 334.906H2058.28V283.891H2109.29V334.906ZM2160.24 334.906H2211.26V283.891H2160.24V334.906Z" fill="#5547FF"/>
<path d="M2262.24 334.906H2211.23V283.891H2262.24V334.906Z" fill="#5547FF"/>
<path d="M2313.23 334.906H2262.21V283.891H2313.23V334.906ZM2364.19 334.906H2415.2V283.891H2364.19V334.906Z" fill="#5547FF"/>
<path d="M2313.2 334.906H2364.21V283.891H2313.2V334.906ZM1854.36 385.385H1803.35V334.37H1854.36V385.385ZM1905.32 385.385H1956.33V334.37H1905.32V385.385ZM2058.3 385.385H2007.29V334.37H2058.3V385.385Z" fill="#5547FF"/>
<path d="M2109.29 385.385H2058.28V334.37H2109.29V385.385ZM2160.24 385.385H2211.26V334.37H2160.24V385.385Z" fill="#5547FF"/>
<path d="M2109.26 385.385H2160.27V334.37H2109.26V385.385ZM2262.24 385.385H2211.23V334.37H2262.24V385.385ZM2313.2 385.385H2364.21V334.37H2313.2V385.385ZM1803.35 421.047H1854.36V384.854H1803.35V421.047ZM1905.32 421.047H1956.33V384.854H1905.32V421.047Z" fill="#5547FF"/>
<path d="M2058.28 421.047H2109.29V384.854H2058.28V421.047ZM2160.24 421.047H2211.26V384.854H2160.24V421.047Z" fill="#5547FF"/>
<path d="M2109.26 421.047H2160.27V384.854H2109.26V421.047ZM2313.2 421.047H2364.21V384.854H2313.2V421.047ZM2466.06 385.385H2415.05V334.37H2466.06V385.385Z" fill="#5547FF"/>
<path d="M2415.05 421.047H2466.06V384.854H2415.05V421.047ZM97.0521 21.2604H148.068V0H97.0521V21.2604ZM199.026 21.2604H250.036V0H199.026V21.2604ZM300.995 21.2604H352.005V0H300.995V21.2604Z" fill="#5547FF"/>
<path d="M402.964 21.2604H453.974V0H402.964V21.2604ZM504.932 21.2604H555.948V0H504.932V21.2604ZM606.906 21.2604H657.917V0H606.906V21.2604ZM148.068 71.7448H97.0521V20.7292H148.068V71.7448ZM199.026 71.7448H250.036V20.7292H199.026V71.7448Z" fill="#5547FF"/>
<path d="M402.99 71.7446H351.979V20.729H402.99V71.7446ZM453.948 71.7446H504.964V20.729H453.948V71.7446Z" fill="#5547FF"/>
<path d="M402.964 71.7446H453.974V20.729H402.964V71.7446ZM606.906 71.7446H657.917V20.729H606.906V71.7446ZM352.005 122.224H300.995V71.2134H352.005V122.224Z" fill="#5547FF"/>
<path d="M402.964 122.224H453.974V71.2134H402.964V122.224ZM555.948 122.224H504.932V71.2134H555.948V122.224ZM250.01 171.713H301.021V120.703H250.01V171.713Z" fill="#5547FF"/>
<path d="M402.99 171.714H351.979V120.703H402.99V171.714ZM453.948 171.714H504.964V120.703H453.948V171.714ZM606.932 171.714H555.917V120.703H606.932V171.714ZM199.026 222.193H250.036V171.182H199.026V222.193Z" fill="#5547FF"/>
<path d="M352.005 222.193H300.995V171.182H352.005V222.193ZM402.964 222.193H453.974V171.182H402.964V222.193ZM555.948 222.193H504.932V171.182H555.948V222.193ZM606.906 222.193H657.917V171.182H606.906V222.193ZM199.052 272.677H148.036V221.661H199.052V272.677Z" fill="#5547FF"/>
<path d="M250.01 272.677H301.021V221.662H250.01V272.677ZM402.99 272.677H351.979V221.662H402.99V272.677ZM453.948 272.677H504.964V221.662H453.948V272.677ZM606.932 272.677H555.917V221.662H606.932V272.677ZM657.891 272.677H708.901V221.662H657.891V272.677Z" fill="#5547FF"/>
<path d="M352.005 323.156H300.995V272.141H352.005V323.156Z" fill="#5547FF"/>
<path d="M402.99 323.156H351.979V272.141H402.99V323.156ZM453.948 323.156H504.964V272.141H453.948V323.156Z" fill="#5547FF"/>
<path d="M555.948 323.156H504.932V272.141H555.948V323.156ZM250.01 372.646H301.021V321.635H250.01V372.646Z" fill="#5547FF"/>
<path d="M352.005 372.646H300.995V321.635H352.005V372.646Z" fill="#5547FF"/>
<path d="M402.99 372.646H351.979V321.635H402.99V372.646ZM453.948 372.646H504.964V321.635H453.948V372.646Z" fill="#5547FF"/>
<path d="M555.948 372.646H504.932V321.635H555.948V372.646Z" fill="#5547FF"/>
<path d="M606.932 372.646H555.917V321.635H606.932V372.646ZM708.755 21.2604H759.766V0H708.755V21.2604Z" fill="#5547FF"/>
</svg>
