<svg width="74" height="74" viewBox="0 0 74 74" fill="none" xmlns="http://www.w3.org/2000/svg">
<path d="M73.3333 37.0002C73.3333 57.2502 56.9219 73.6668 36.6667 73.6668C16.4167 73.6668 0 57.2502 0 37.0002C0 16.7502 16.4167 0.333496 36.6667 0.333496C56.9219 0.333496 73.3333 16.7502 73.3333 37.0002Z" fill="white"/>
<path d="M45.7552 16.6196C45.6094 23.8123 48.474 33.5884 57.1094 33.7603V36.7811C46.3177 37.2967 41.2708 25.8957 40.8906 16.6196H45.7552Z" fill="#FBB016"/>
<path d="M40.8906 54.7345C41.2708 45.4636 46.3177 34.0574 57.1146 34.573V37.5939C53.1875 37.7761 49.9844 39.8334 48.2083 43.323C46.4219 46.672 45.7396 50.9897 45.7552 54.7345H40.8906Z" fill="#FBB016"/>
<path d="M53.6356 38.224H13.0835V33.3594H53.6356V38.224Z" fill="#FBB016"/>
</svg>
