<svg width="74" height="74" viewBox="0 0 74 74" fill="none" xmlns="http://www.w3.org/2000/svg">
<path d="M73.3333 36.6667C73.3333 56.9167 56.9219 73.3333 36.6667 73.3333C16.4167 73.3333 0 56.9167 0 36.6667C0 16.4167 16.4167 0 36.6667 0C56.9219 0 73.3333 16.4167 73.3333 36.6667Z" fill="#161616"/>
<path d="M45.7552 16.2861C45.6094 23.4788 48.474 33.2549 57.1094 33.4268V36.4476C46.3177 36.9632 41.2708 25.5622 40.8906 16.2861H45.7552Z" fill="#5547FF"/>
<path d="M40.8906 54.401C41.2708 45.1302 46.3177 33.7239 57.1146 34.2395V37.2604C53.1875 37.4427 49.9844 39.4999 48.2083 42.9895C46.4219 46.3385 45.7396 50.6562 45.7552 54.401H40.8906Z" fill="#5547FF"/>
<path d="M53.6356 37.8905H13.0835V33.0259H53.6356V37.8905Z" fill="#5547FF"/>
</svg>
