<svg width="2560" height="780" viewBox="0 0 2560 780" fill="none" xmlns="http://www.w3.org/2000/svg">
<path d="M2579.96 779.979H-13.8022V68.0728H2579.96V779.979Z" fill="#5547FF"/>
<path d="M-30.4478 66.2188L35.1877 0.578125L100.823 66.2135L35.1877 131.849L-30.4478 66.2188Z" fill="#5547FF"/>
<path d="M100.594 66.2188L166.229 0.578125L231.859 66.2135L166.224 131.849L100.594 66.2188Z" fill="#5547FF"/>
<path d="M231.63 66.2188L297.266 0.578125L362.901 66.2135L297.266 131.849L231.63 66.2188Z" fill="#5547FF"/>
<path d="M362.667 66.2188L428.307 0.578125L493.937 66.2135L428.302 131.849L362.667 66.2188Z" fill="#5547FF"/>
<path d="M493.708 66.2188L559.344 0.578125L624.979 66.2135L559.344 131.849L493.708 66.2188ZM755.787 66.2188L821.422 0.578125L887.057 66.2135L821.422 131.849L755.787 66.2188Z" fill="#5547FF"/>
<path d="M886.823 66.2188L952.463 0.578125L1018.09 66.2135L952.458 131.849L886.823 66.2188Z" fill="#5547FF"/>
<path d="M1017.86 66.2188L1083.5 0.578125L1149.14 66.2135L1083.5 131.849L1017.86 66.2188Z" fill="#5547FF"/>
<path d="M1148.9 66.2188L1214.54 0.578125L1280.17 66.2135L1214.54 131.849L1148.9 66.2188Z" fill="#5547FF"/>
<path d="M1279.94 66.2188L1345.58 0.578125L1411.21 66.2135L1345.58 131.849L1279.94 66.2188Z" fill="#5547FF"/>
<path d="M1410.98 66.2188L1476.62 0.578125L1542.25 66.2135L1476.61 131.849L1410.98 66.2188Z" fill="#5547FF"/>
<path d="M1542.02 66.2188L1607.66 0.578125L1673.29 66.2135L1607.66 131.849L1542.02 66.2188Z" fill="#5547FF"/>
<path d="M1673.06 66.2188L1738.7 0.578125L1804.33 66.2135L1738.69 131.849L1673.06 66.2188Z" fill="#5547FF"/>
<path d="M1804.1 66.2188L1869.73 0.578125L1935.37 66.2135L1869.73 131.849L1804.1 66.2188Z" fill="#5547FF"/>
<path d="M1935.14 66.2188L2000.78 0.578125L2066.41 66.2135L2000.77 131.849L1935.14 66.2188ZM624.745 66.2188L690.385 0.578125L756.015 66.2135L690.38 131.849L624.745 66.2188Z" fill="#5547FF"/>
<path d="M1935.14 66.2188L2000.78 0.578125L2066.41 66.2135L2000.77 131.849L1935.14 66.2188Z" fill="#5547FF"/>
<path d="M2066.18 66.2188L2131.81 0.578125L2197.45 66.2135L2131.81 131.849L2066.18 66.2188Z" fill="#5547FF"/>
<path d="M2197.21 66.2188L2262.85 0.578125L2328.48 66.2135L2262.85 131.849L2197.21 66.2188Z" fill="#5547FF"/>
<path d="M2328.26 66.2188L2393.89 0.578125L2459.53 66.2135L2393.89 131.849L2328.26 66.2188Z" fill="#5547FF"/>
<path d="M2459.29 66.2188L2524.93 0.578125L2590.56 66.2135L2524.93 131.849L2459.29 66.2188Z" fill="#5547FF"/>
</svg>
