<svg width="2560" height="788" viewBox="0 0 2560 788" fill="none" xmlns="http://www.w3.org/2000/svg">
<path d="M-30.0835 67.1564L35.5519 1.521L101.187 67.1564L35.5467 132.792L-30.0835 67.1564Z" fill="#FBB016"/>
<path d="M100.953 67.1564L166.589 1.521L232.224 67.1564L166.589 132.792L100.953 67.1564Z" fill="#FBB016"/>
<path d="M231.995 67.1564L297.63 1.521L363.265 67.1564L297.625 132.792L231.995 67.1564Z" fill="#FBB016"/>
<path d="M363.031 67.1564L428.667 1.521L494.302 67.1564L428.667 132.792L363.031 67.1564Z" fill="#FBB016"/>
<path d="M494.073 67.1564L559.708 1.521L625.344 67.1564L559.703 132.792L494.073 67.1564ZM756.151 67.1564L821.786 1.521L887.422 67.1564L821.781 132.792L756.151 67.1564Z" fill="#FBB016"/>
<path d="M887.188 67.1564L952.823 1.521L1018.46 67.1564L952.823 132.792L887.188 67.1564Z" fill="#FBB016"/>
<path d="M1018.23 67.1564L1083.86 1.521L1149.5 67.1564L1083.86 132.792L1018.23 67.1564Z" fill="#FBB016"/>
<path d="M1149.27 67.1564L1214.9 1.521L1280.54 67.1564L1214.9 132.792L1149.27 67.1564Z" fill="#FBB016"/>
<path d="M1280.31 67.1564L1345.94 1.521L1411.58 67.1564L1345.94 132.792L1280.31 67.1564Z" fill="#FBB016"/>
<path d="M1411.34 67.1564L1476.98 1.521L1542.61 67.1564L1476.98 132.792L1411.34 67.1564Z" fill="#FBB016"/>
<path d="M1542.39 67.1564L1608.02 1.521L1673.65 67.1564L1608.02 132.792L1542.39 67.1564Z" fill="#FBB016"/>
<path d="M1673.42 67.1564L1739.06 1.521L1804.69 67.1564L1739.06 132.792L1673.42 67.1564Z" fill="#FBB016"/>
<path d="M1804.46 67.1564L1870.1 1.521L1935.73 67.1564L1870.09 132.792L1804.46 67.1564Z" fill="#FBB016"/>
<path d="M1935.5 67.1564L2001.14 1.521L2066.77 67.1564L2001.14 132.792L1935.5 67.1564ZM625.109 67.1564L690.745 1.521L756.38 67.1564L690.745 132.792L625.109 67.1564Z" fill="#FBB016"/>
<path d="M1935.5 67.1564L2001.14 1.521L2066.77 67.1564L2001.14 132.792L1935.5 67.1564Z" fill="#FBB016"/>
<path d="M2066.54 67.1564L2132.18 1.521L2197.81 67.1564L2132.17 132.792L2066.54 67.1564Z" fill="#FBB016"/>
<path d="M2197.58 67.1564L2263.21 1.521L2328.85 67.1564L2263.21 132.792L2197.58 67.1564Z" fill="#FBB016"/>
<path d="M2328.62 67.1564L2394.26 1.521L2459.89 67.1564L2394.25 132.792L2328.62 67.1564Z" fill="#FBB016"/>
<path d="M2459.66 67.1564L2525.29 1.521L2590.93 67.1564L2525.29 132.792L2459.66 67.1564Z" fill="#FBB016"/>
<path d="M2580.32 787.531H-13.4375V68.0054H2580.32V787.531Z" fill="#FBB016"/>
<path d="M-30.771 66.3801L34.8696 0.744629L100.5 66.3801L34.8644 132.015L-30.771 66.3801Z" fill="#FBB016"/>
<path d="M100.271 66.3801L165.906 0.744629L231.542 66.3801L165.906 132.015L100.271 66.3801Z" fill="#FBB016"/>
<path d="M231.307 66.3801L296.948 0.744629L362.578 66.3801L296.943 132.015L231.307 66.3801Z" fill="#FBB016"/>
<path d="M362.349 66.3801L427.985 0.744629L493.62 66.3801L427.985 132.015L362.349 66.3801Z" fill="#FBB016"/>
<path d="M493.385 66.3801L559.026 0.744629L624.656 66.3801L559.021 132.015L493.385 66.3801ZM755.463 66.3801L821.104 0.744629L886.734 66.3801L821.099 132.015L755.463 66.3801Z" fill="#FBB016"/>
<path d="M886.505 66.3801L952.141 0.744629L1017.78 66.3801L952.141 132.015L886.505 66.3801Z" fill="#FBB016"/>
<path d="M1017.54 66.3801L1083.18 0.744629L1148.81 66.3801L1083.18 132.015L1017.54 66.3801Z" fill="#FBB016"/>
<path d="M1148.58 66.3801L1214.22 0.744629L1279.85 66.3801L1214.22 132.015L1148.58 66.3801Z" fill="#FBB016"/>
<path d="M1279.62 66.3801L1345.26 0.744629L1410.89 66.3801L1345.26 132.015L1279.62 66.3801Z" fill="#FBB016"/>
<path d="M1410.66 66.3801L1476.3 0.744629L1541.93 66.3801L1476.3 132.015L1410.66 66.3801Z" fill="#FBB016"/>
<path d="M1541.7 66.3801L1607.34 0.744629L1672.97 66.3801L1607.33 132.015L1541.7 66.3801Z" fill="#FBB016"/>
<path d="M1672.74 66.3801L1738.38 0.744629L1804.01 66.3801L1738.38 132.015L1672.74 66.3801Z" fill="#FBB016"/>
<path d="M1803.78 66.3801L1869.42 0.744629L1935.05 66.3801L1869.41 132.015L1803.78 66.3801Z" fill="#FBB016"/>
<path d="M1934.82 66.3801L2000.45 0.744629L2066.09 66.3801L2000.45 132.015L1934.82 66.3801ZM624.427 66.3801L690.063 0.744629L755.698 66.3801L690.063 132.015L624.427 66.3801Z" fill="#FBB016"/>
<path d="M1934.82 66.3801L2000.45 0.744629L2066.09 66.3801L2000.45 132.015L1934.82 66.3801Z" fill="#FBB016"/>
<path d="M2065.85 66.3801L2131.49 0.744629L2197.13 66.3801L2131.49 132.015L2065.85 66.3801Z" fill="#FBB016"/>
<path d="M2196.9 66.3801L2262.53 0.744629L2328.17 66.3801L2262.53 132.015L2196.9 66.3801Z" fill="#FBB016"/>
<path d="M2327.93 66.3801L2393.57 0.744629L2459.2 66.3801L2393.57 132.015L2327.93 66.3801Z" fill="#FBB016"/>
<path d="M2458.97 66.3801L2524.61 0.744629L2590.24 66.3801L2524.61 132.015L2458.97 66.3801Z" fill="#FBB016"/>
</svg>
