<svg width="2560" height="713" viewBox="0 0 2560 713" fill="none" xmlns="http://www.w3.org/2000/svg">
<path d="M2580.32 66.0889H-13.4375V712.495H2580.32V66.0889Z" fill="#161616"/>
<path d="M-30.0835 66.1354L35.5519 0.5L101.187 66.1302L35.5467 131.771L-30.0835 66.1354Z" fill="#161616"/>
<path d="M100.953 66.1354L166.589 0.5L232.224 66.1302L166.589 131.771L100.953 66.1354Z" fill="#161616"/>
<path d="M231.995 66.1354L297.63 0.5L363.265 66.1302L297.625 131.771L231.995 66.1354Z" fill="#161616"/>
<path d="M363.031 66.1354L428.667 0.5L494.302 66.1302L428.667 131.771L363.031 66.1354Z" fill="#161616"/>
<path d="M494.073 66.1354L559.708 0.5L625.344 66.1302L559.703 131.771L494.073 66.1354ZM756.151 66.1354L821.786 0.5L887.422 66.1302L821.781 131.771L756.151 66.1354Z" fill="#161616"/>
<path d="M887.188 66.1354L952.823 0.5L1018.46 66.1302L952.823 131.771L887.188 66.1354Z" fill="#161616"/>
<path d="M1018.23 66.1354L1083.86 0.5L1149.5 66.1302L1083.86 131.771L1018.23 66.1354Z" fill="#161616"/>
<path d="M1149.27 66.1354L1214.9 0.5L1280.54 66.1302L1214.9 131.771L1149.27 66.1354Z" fill="#161616"/>
<path d="M1280.31 66.1354L1345.94 0.5L1411.58 66.1302L1345.94 131.771L1280.31 66.1354Z" fill="#161616"/>
<path d="M1411.34 66.1354L1476.98 0.5L1542.61 66.1302L1476.98 131.771L1411.34 66.1354Z" fill="#161616"/>
<path d="M1542.39 66.1354L1608.02 0.5L1673.65 66.1302L1608.02 131.771L1542.39 66.1354Z" fill="#161616"/>
<path d="M1673.42 66.1354L1739.06 0.5L1804.69 66.1302L1739.06 131.771L1673.42 66.1354Z" fill="#161616"/>
<path d="M1804.46 66.1354L1870.1 0.5L1935.73 66.1302L1870.09 131.771L1804.46 66.1354Z" fill="#161616"/>
<path d="M1935.5 66.1354L2001.14 0.5L2066.77 66.1302L2001.14 131.771L1935.5 66.1354ZM625.109 66.1354L690.745 0.5L756.38 66.1302L690.745 131.771L625.109 66.1354Z" fill="#161616"/>
<path d="M1935.5 66.1354L2001.14 0.5L2066.77 66.1302L2001.14 131.771L1935.5 66.1354Z" fill="#161616"/>
<path d="M2066.54 66.1354L2132.18 0.5L2197.81 66.1302L2132.17 131.771L2066.54 66.1354Z" fill="#161616"/>
<path d="M2197.58 66.1354L2263.21 0.5L2328.85 66.1302L2263.21 131.771L2197.58 66.1354Z" fill="#161616"/>
<path d="M2328.62 66.1354L2394.26 0.5L2459.89 66.1302L2394.25 131.771L2328.62 66.1354Z" fill="#161616"/>
<path d="M2459.66 66.1354L2525.29 0.5L2590.93 66.1302L2525.29 131.771L2459.66 66.1354Z" fill="#161616"/>
</svg>
