<svg width="2560" height="787" viewBox="0 0 2560 787" fill="none" xmlns="http://www.w3.org/2000/svg">
<path d="M-30.0835 65.7134L35.5519 0.0727539L101.187 65.7082L35.5467 131.349L-30.0835 65.7134Z" fill="#E10076"/>
<path d="M100.953 65.7134L166.589 0.0727539L232.224 65.7082L166.589 131.349L100.953 65.7134Z" fill="#E10076"/>
<path d="M231.995 65.7134L297.63 0.0727539L363.265 65.7082L297.625 131.349L231.995 65.7134Z" fill="#E10076"/>
<path d="M363.031 65.7134L428.667 0.0727539L494.302 65.7082L428.667 131.349L363.031 65.7134Z" fill="#E10076"/>
<path d="M494.073 65.7134L559.708 0.0727539L625.344 65.7082L559.703 131.349L494.073 65.7134ZM756.151 65.7134L821.786 0.0727539L887.422 65.7082L821.781 131.349L756.151 65.7134Z" fill="#E10076"/>
<path d="M887.188 65.7134L952.823 0.0727539L1018.46 65.7082L952.823 131.349L887.188 65.7134Z" fill="#E10076"/>
<path d="M1018.23 65.7134L1083.86 0.0727539L1149.5 65.7082L1083.86 131.349L1018.23 65.7134Z" fill="#E10076"/>
<path d="M1149.27 65.7134L1214.9 0.0727539L1280.54 65.7082L1214.9 131.349L1149.27 65.7134Z" fill="#E10076"/>
<path d="M1280.31 65.7134L1345.94 0.0727539L1411.58 65.7082L1345.94 131.349L1280.31 65.7134Z" fill="#E10076"/>
<path d="M1411.34 65.7134L1476.98 0.0727539L1542.61 65.7082L1476.98 131.349L1411.34 65.7134Z" fill="#E10076"/>
<path d="M1542.39 65.7134L1608.02 0.0727539L1673.65 65.7082L1608.02 131.349L1542.39 65.7134Z" fill="#E10076"/>
<path d="M1673.42 65.7134L1739.06 0.0727539L1804.69 65.7082L1739.06 131.349L1673.42 65.7134Z" fill="#E10076"/>
<path d="M1804.46 65.7134L1870.1 0.0727539L1935.73 65.7082L1870.09 131.349L1804.46 65.7134Z" fill="#E10076"/>
<path d="M1935.5 65.7134L2001.14 0.0727539L2066.77 65.7082L2001.14 131.349L1935.5 65.7134ZM625.109 65.7134L690.745 0.0727539L756.38 65.7082L690.745 131.349L625.109 65.7134Z" fill="#E10076"/>
<path d="M1935.5 65.7134L2001.14 0.0727539L2066.77 65.7082L2001.14 131.349L1935.5 65.7134Z" fill="#E10076"/>
<path d="M2066.54 65.7134L2132.18 0.0727539L2197.81 65.7082L2132.17 131.349L2066.54 65.7134Z" fill="#E10076"/>
<path d="M2197.58 65.7134L2263.21 0.0727539L2328.85 65.7082L2263.21 131.349L2197.58 65.7134Z" fill="#E10076"/>
<path d="M2328.62 65.7134L2394.26 0.0727539L2459.89 65.7082L2394.25 131.349L2328.62 65.7134Z" fill="#E10076"/>
<path d="M2459.66 65.7134L2525.29 0.0727539L2590.93 65.7082L2525.29 131.349L2459.66 65.7134Z" fill="#E10076"/>
<path d="M2580.32 786.088H-13.4375V66.5571H2580.32V786.088Z" fill="#E10076"/>
</svg>
