<svg width="123" height="59" viewBox="0 0 123 59" fill="none" xmlns="http://www.w3.org/2000/svg">
<path d="M54.651 9.15789V31.9756H46.4531V9.75685C46.4531 8.85581 45.7969 8.19956 44.8125 8.19956C43.9896 8.19956 43.2552 8.68914 43.2552 9.75685V49.111C43.2552 49.9287 43.9115 50.585 44.8125 50.585C45.7135 50.585 46.4531 50.0902 46.4531 49.111V43.3714H54.651V49.5537C54.651 53.8818 51.625 57.6891 47.375 58.5121C40.1615 59.9079 35.0521 55.7985 35.0521 49.1891V10.0016C35.0521 3.05893 40.4219 -1.09211 47.474 0.25164C51.6823 1.05372 54.651 4.87143 54.651 9.15789ZM65.8802 30.4964V48.2881C65.8802 49.2725 66.6198 49.7673 67.4375 49.7673C68.4219 49.7673 69.0781 49.111 69.0781 48.2881V25.4964C67.0312 26.0693 65.8802 28.0381 65.8802 30.4964ZM67.6875 0.819348C73.4219 0.819348 77.276 4.67351 77.276 10.3298V57.9652H67.5208C61.7812 57.9652 57.6823 54.0277 57.6823 48.0433V25.335C57.6823 20.4131 60.5521 17.1318 64.8177 17.1318C67.6042 17.1318 69.0781 15.7412 69.0781 13.4443V12.6266C69.0781 10.4964 67.3594 9.01727 64.8177 9.01727H57.6823V0.819348H67.6875ZM88.6146 33.2881C90.6615 32.71 91.8125 30.7464 91.8125 28.2829V10.4964C91.8125 9.51206 91.0729 9.01727 90.1719 9.01727C89.2708 9.01727 88.6146 9.67351 88.6146 10.4964V33.2881ZM88.6146 57.9652H80.4167V0.819348H90.0885C95.9115 0.819348 100.01 4.75685 100.01 10.7412V33.4496C100.01 38.3714 97.1406 41.6475 92.875 41.6475C90.0885 41.6475 88.6146 43.2048 88.6146 45.5016V57.9652ZM114.51 19.2673V9.67352C114.51 8.68914 113.771 8.19956 112.87 8.19956C111.969 8.19956 111.312 8.85581 111.312 9.67352V24.3506C113.359 23.7777 114.51 21.8089 114.51 19.2673ZM122.708 35.9756V48.7829C122.708 55.5589 117.453 59.8141 110.271 58.5693C106.109 57.8454 103.115 54.1475 103.115 49.9235V10.0016C103.115 3.93393 107.214 0.00163963 112.87 0.00163963C118.771 0.00163963 122.708 4.17872 122.708 10.0016V24.5121C122.708 29.3506 119.839 32.6319 115.573 32.6319C112.786 32.6319 111.312 34.1891 111.312 36.486V49.7308C111.312 50.0016 111.479 50.2412 111.724 50.3454C113.047 50.8923 114.51 50.5277 114.51 49.0277V35.9756H122.708ZM0.182292 58.1266V11.0433H8.48438L8.41667 58.1371L0.182292 58.1266ZM0 0.147473H8.66667V8.81935H0V0.147473ZM28.0469 29.1683L32.7344 57.986H24.0729L21.8073 37.8506L19.4583 57.986H10.7917L15.4792 29.1683L10.7865 0.387056H19.4531L21.8073 20.5693L24.0781 0.387056H32.7396L28.0469 29.1683Z" fill="#161616"/>
</svg>
