<svg width="123" height="60" viewBox="0 0 123 60" fill="none" xmlns="http://www.w3.org/2000/svg">
<path d="M54.651 9.94305V32.7608H46.4531V10.542C46.4531 9.64096 45.7969 8.98471 44.8125 8.98471C43.9896 8.98471 43.2552 9.4743 43.2552 10.542V49.8962C43.2552 50.7139 43.9115 51.3701 44.8125 51.3701C45.7135 51.3701 46.4531 50.8753 46.4531 49.8962V44.1566H54.651V50.3389C54.651 54.667 51.625 58.4743 47.375 59.2972C40.1615 60.693 35.0521 56.5837 35.0521 49.9743V10.7868C35.0521 3.84409 40.4219 -0.306955 47.474 1.0368C51.6823 1.83888 54.651 5.65659 54.651 9.94305ZM65.8802 31.2816V49.0733C65.8802 50.0576 66.6198 50.5524 67.4375 50.5524C68.4219 50.5524 69.0781 49.8962 69.0781 49.0733V26.2816C67.0312 26.8545 65.8802 28.8233 65.8802 31.2816ZM67.6875 1.6045C73.4219 1.6045 77.276 5.45867 77.276 11.1149V58.7503H67.5208C61.7812 58.7503 57.6823 54.8128 57.6823 48.8285V26.1201C57.6823 21.1983 60.5521 17.917 64.8177 17.917C67.6042 17.917 69.0781 16.5264 69.0781 14.2295V13.4118C69.0781 11.2816 67.3594 9.80242 64.8177 9.80242H57.6823V1.6045H67.6875ZM88.6146 34.0733C90.6615 33.4951 91.8125 31.5316 91.8125 29.068V11.2816C91.8125 10.2972 91.0729 9.80242 90.1719 9.80242C89.2708 9.80242 88.6146 10.4587 88.6146 11.2816V34.0733ZM88.6146 58.7503H80.4167V1.6045H90.0885C95.9115 1.6045 100.01 5.542 100.01 11.5264V34.2347C100.01 39.1566 97.1406 42.4326 92.875 42.4326C90.0885 42.4326 88.6146 43.9899 88.6146 46.2868V58.7503ZM114.51 20.0524V10.4587C114.51 9.4743 113.771 8.98471 112.87 8.98471C111.969 8.98471 111.312 9.64096 111.312 10.4587V25.1358C113.359 24.5628 114.51 22.5941 114.51 20.0524ZM122.708 36.7608V49.568C122.708 56.3441 117.453 60.5993 110.271 59.3545C106.109 58.6305 103.115 54.9326 103.115 50.7087V10.7868C103.115 4.71909 107.214 0.786796 112.87 0.786796C118.771 0.786796 122.708 4.96388 122.708 10.7868V25.2972C122.708 30.1358 119.839 33.417 115.573 33.417C112.786 33.417 111.312 34.9743 111.312 37.2712V50.516C111.312 50.7868 111.479 51.0264 111.724 51.1305C113.047 51.6774 114.51 51.3128 114.51 49.8128V36.7608H122.708ZM0.182292 58.9118V11.8285H8.48438L8.41667 58.9222L0.182292 58.9118ZM0 0.932629H8.66667V9.6045H0V0.932629ZM28.0469 29.9535L32.7344 58.7712H24.0729L21.8073 38.6358L19.4583 58.7712H10.7917L15.4792 29.9535L10.7865 1.17221H19.4531L21.8073 21.3545L24.0781 1.17221H32.7396L28.0469 29.9535Z" fill="#E10076"/>
</svg>
