<svg width="57" height="57" viewBox="0 0 57 57" fill="none" xmlns="http://www.w3.org/2000/svg">
<path d="M44.4167 1.1978H55.6094V12.3905H44.4167V1.1978ZM37.5781 28.5572L28.25 19.229L37.5781 9.90092L46.9062 19.229L37.5781 28.5572Z" fill="#FBB016"/>
<path d="M28.25 19.229L18.9219 9.90092L28.25 0.5728L37.5781 9.90092L28.25 19.229Z" fill="#E20077"/>
<path d="M28.25 37.8853L18.9219 28.5572L28.25 19.229L37.5781 28.5572L28.25 37.8853Z" fill="#FBB016"/>
<path d="M18.9219 28.5572L9.59375 19.229L18.9219 9.90092L28.25 19.229L18.9219 28.5572ZM37.5781 47.2134L28.25 37.8853L37.5781 28.5572L46.9062 37.8853L37.5781 47.2134Z" fill="#E20077"/>
<path d="M9.59375 19.229L0.265625 9.90092L9.59375 0.5728L18.9219 9.90092L9.59375 19.229ZM46.901 56.5415L37.5781 47.2134L46.901 37.8853L56.2292 47.2134L46.901 56.5415Z" fill="#E20077"/>
<path d="M18.9219 47.2134L9.59375 37.8853L0.265625 47.2134L9.59375 56.5415L18.9219 47.2134Z" fill="#FBB016"/>
<path d="M28.25 37.8853L18.9219 28.5572L9.59375 37.8853L18.9219 47.2134L28.25 37.8853Z" fill="#E20077"/>
<path d="M37.5781 47.2134L28.25 37.8853L18.9219 47.2134L28.25 56.5415L37.5781 47.2134ZM46.901 37.8853L37.5781 28.5572L46.901 19.229L56.2292 28.5572L46.901 37.8853ZM9.59375 37.8853L0.265625 28.5572L9.59375 19.229L18.9219 28.5572L9.59375 37.8853Z" fill="#E20077"/>
</svg>
