<svg width="116" height="116" viewBox="0 0 116 116" fill="none" xmlns="http://www.w3.org/2000/svg">
<path d="M91.6858 1H115V24.3142H91.6858V1ZM77.4303 58L58 38.5697L77.4303 19.1393L96.8607 38.5697L77.4303 58Z" fill="#EDEDED"/>
<path d="M58 39L39 19.5L58 0L77 19.5L58 39Z" fill="#5547FF"/>
<path d="M38.5 58L19 38.5L38.5 19L58 38.5L38.5 58ZM77.5 97L58 77.5L77.5 58L97 77.5L77.5 97Z" fill="#5547FF"/>
<path d="M19.3333 38.6667L0 19.3333L19.3333 0L38.6667 19.3333L19.3333 38.6667ZM96.6667 116L77.3333 96.6667L96.6667 77.3333L116 96.6667L96.6667 116Z" fill="#5547FF"/>
<path d="M39 96.5L19.5 77L0 96.5L19.5 116L39 96.5Z" fill="#EDEDED"/>
<path d="M77.3333 96.75L58 77.5L38.6667 96.75L58 116L77.3333 96.75ZM96.6667 77.5L77.3333 58.25L96.6667 39L116 58.25L96.6667 77.5ZM19.3333 77.5L0 58.25L19.3333 39L38.6667 58.25L19.3333 77.5Z" fill="#5547FF"/>
</svg>
