<svg width="249" height="47" viewBox="0 0 249 47" fill="none" xmlns="http://www.w3.org/2000/svg">
<path d="M113.948 23.792C113.948 36.5576 103.599 46.9066 90.8333 46.9066C78.0728 46.9066 67.7239 36.5576 67.7239 23.792C67.7239 11.0316 78.0728 0.682617 90.8333 0.682617C103.599 0.682617 113.948 11.0316 113.948 23.792ZM181.099 23.792C181.099 36.5576 170.755 46.9066 157.99 46.9066C145.224 46.9066 134.875 36.5576 134.875 23.792C134.875 11.0316 145.224 0.682617 157.99 0.682617C170.755 0.682617 181.099 11.0316 181.099 23.792Z" fill="black"/>
<path d="M170.755 15.8751C169.958 16.2345 169.073 16.4585 168.208 16.5991C168.62 16.5314 169.219 15.7918 169.463 15.4897C169.833 15.0314 170.135 14.5106 170.307 13.9481C170.328 13.9064 170.349 13.8491 170.302 13.8126C170.245 13.7918 170.208 13.8022 170.167 13.8283C169.203 14.3439 168.203 14.7189 167.146 14.9845C167.057 15.0054 166.99 14.9845 166.937 14.9272C166.849 14.8283 166.766 14.7345 166.672 14.6564C166.224 14.2762 165.75 13.9793 165.208 13.7606C164.5 13.4741 163.724 13.3491 162.963 13.4012C162.219 13.4481 161.49 13.6564 160.833 14.0001C160.172 14.3439 159.583 14.8231 159.115 15.4064C158.63 16.0001 158.271 16.7085 158.088 17.4585C157.911 18.1824 157.927 18.9012 158.031 19.6304C158.047 19.7501 158.036 19.7658 157.927 19.7501C153.776 19.1356 150.338 17.646 147.542 14.4637C147.422 14.3283 147.354 14.3283 147.255 14.4741C146.036 16.3074 146.63 19.2501 148.156 20.6981C148.359 20.8908 148.568 21.0835 148.792 21.2606C148.708 21.2762 147.693 21.1668 146.792 20.6981C146.667 20.6199 146.609 20.6668 146.594 20.8022C146.583 21.0001 146.599 21.1824 146.63 21.396C146.865 23.2554 148.151 24.9741 149.911 25.6408C150.12 25.7293 150.349 25.8074 150.578 25.8491C150.177 25.9324 149.76 25.9949 148.615 25.9064C148.469 25.8804 148.411 25.9533 148.469 26.0887C149.333 28.4481 151.198 29.146 152.599 29.547C152.786 29.5783 152.974 29.5783 153.161 29.6251C153.146 29.6408 153.135 29.6408 153.125 29.6564C152.661 30.3647 151.057 30.8908 150.307 31.1512C148.948 31.6304 147.463 31.8439 146.021 31.6981C145.792 31.6668 145.745 31.6668 145.682 31.6981C145.62 31.7397 145.677 31.7918 145.75 31.8543C146.042 32.047 146.338 32.2189 146.641 32.3804C147.557 32.8647 148.505 33.2554 149.505 33.5262C154.651 34.9481 160.448 33.9064 164.307 30.0679C167.344 27.0522 168.406 22.896 168.406 18.7345C168.406 18.5679 168.599 18.4793 168.713 18.3908C169.5 17.8022 170.141 17.0887 170.729 16.297C170.859 16.1199 170.859 15.9637 170.859 15.896V15.8751C170.859 15.8074 170.859 15.8283 170.755 15.8751ZM98.0103 15.0522C97.1301 15.0522 96.4218 15.7606 96.4218 16.6408C96.4218 17.5158 97.1301 18.2293 98.0103 18.2293C98.8853 18.2293 99.5989 17.5158 99.5989 16.6408C99.5989 15.7606 98.8853 15.0522 98.0103 15.0522ZM90.9478 28.0366C88.5885 28.0366 86.6718 26.1199 86.6718 23.7606C86.6718 21.4064 88.5885 19.4845 90.9478 19.4845C93.302 19.4845 95.2187 21.4064 95.2187 23.7606C95.2187 26.1199 93.302 28.0366 90.9478 28.0366ZM90.9478 17.0887C87.2655 17.0887 84.2708 20.0835 84.2708 23.7606C84.2708 27.4429 87.2655 30.4324 90.9478 30.4324C94.6249 30.4324 97.6197 27.4429 97.6197 23.7606C97.6197 20.0835 94.6249 17.0887 90.9478 17.0887Z" fill="white"/>
<path d="M85.427 12.7607C82.3437 12.7607 79.8333 15.2712 79.8333 18.3493V29.1722C79.8333 32.2555 82.3437 34.7607 85.427 34.7607H96.2447C99.328 34.7607 101.833 32.2555 101.833 29.1722V18.3493C101.833 15.2712 99.328 12.7607 96.2447 12.7607H85.427ZM96.2447 37.3128H85.427C80.9374 37.3128 77.2864 33.6566 77.2864 29.1722V18.3493C77.2864 13.8649 80.9374 10.2139 85.427 10.2139H96.2447C100.734 10.2139 104.385 13.8649 104.385 18.3493V29.1722C104.385 33.6566 100.734 37.3128 96.2447 37.3128Z" fill="white"/>
<path d="M46.8177 23.7607C46.8177 11.0003 36.4688 0.651367 23.7083 0.651367C10.9427 0.651367 0.59375 11.0003 0.59375 23.7607C0.59375 35.2972 9.04688 44.8597 20.0938 46.5941V30.443H14.224V23.7607H20.0938V18.6722C20.0938 12.8805 23.5469 9.67741 28.8229 9.67741C31.3542 9.67741 33.9948 10.1305 33.9948 10.1305V15.818H31.0833C28.2135 15.818 27.3177 17.5993 27.3177 19.4274V23.7607H33.724L32.7031 30.443H27.3177V46.5941C38.3646 44.8597 46.8177 35.2972 46.8177 23.7607Z" fill="black"/>
<path d="M32.703 30.4429L33.7291 23.7606H27.3176V19.4272C27.3176 17.5991 28.2135 15.8179 31.0833 15.8179H33.9999V10.1304C33.9999 10.1304 31.3541 9.67725 28.8228 9.67725C23.5468 9.67725 20.0937 12.8804 20.0937 18.672V23.7606H14.2239V30.4429H20.0937V46.5939C21.2708 46.7762 22.4739 46.8752 23.7083 46.8752C24.9322 46.8752 26.1405 46.7762 27.3176 46.5939V30.4429H32.703Z" fill="white"/>
<path d="M248.229 23.792C248.229 36.5576 237.885 46.9066 225.12 46.9066C212.354 46.9066 202.01 36.5576 202.01 23.792C202.01 11.0316 212.354 0.682617 225.12 0.682617C237.885 0.682617 248.229 11.0316 248.229 23.792Z" fill="black"/>
<path d="M237.12 21.1304C236.885 21.1512 236.646 21.1668 236.412 21.1668C233.807 21.1668 231.375 19.8543 229.948 17.672V29.5679C229.948 34.422 226.016 38.3543 221.162 38.3543C216.302 38.3543 212.37 34.422 212.37 29.5679C212.37 24.7137 216.302 20.7762 221.162 20.7762C221.344 20.7762 221.521 20.7918 221.703 20.8075V25.1356C221.521 25.1147 221.344 25.0835 221.162 25.0835C218.682 25.0835 216.672 27.0887 216.672 29.5679C216.672 32.047 218.682 34.0522 221.162 34.0522C223.635 34.0522 225.828 32.0991 225.828 29.62L225.87 9.42725H230.01C230.401 13.1408 233.401 16.0418 237.125 16.3179V21.1304" fill="white"/>
</svg>
