<svg width="965" height="159" viewBox="0 0 965 159" fill="none" xmlns="http://www.w3.org/2000/svg">
<path d="M885.979 158.177H79.5934C36.1663 158.177 0.958008 122.974 0.958008 79.547C0.958008 36.12 36.1663 0.911621 79.5934 0.911621H885.979C929.406 0.911621 964.614 36.12 964.614 79.547C964.614 122.974 929.406 158.177 885.979 158.177Z" fill="#161616"/>
<path d="M919.774 83.743C918.488 114.321 892.654 138.061 862.076 136.774C831.503 135.483 807.759 109.654 809.05 79.0763C810.337 48.5034 836.17 24.7586 866.743 26.0503C897.321 27.3368 921.061 53.1701 919.774 83.743Z" fill="#5547FF"/>
<path d="M879.431 51.2114C878.749 62.0708 882.452 77.0083 895.483 77.8156L895.29 82.3833C878.957 82.4666 872.072 64.9302 872.082 50.8989C872.082 50.9041 879.431 51.2114 879.431 51.2114Z" fill="#161616"/>
<path d="M869.654 108.456C870.821 94.4822 879.17 77.576 895.43 79.0395L895.238 83.6072C889.3 83.6281 884.337 86.5343 881.43 91.6906C878.519 96.6281 877.217 103.107 877.003 108.769L869.654 108.456Z" fill="#161616"/>
<path d="M890.264 76.9878L889.952 84.3368L828.723 81.7586L829.035 74.4097L890.264 76.9878Z" fill="#161616"/>
</svg>
