<svg width="342" height="271" viewBox="0 0 342 271" fill="none" xmlns="http://www.w3.org/2000/svg">
<path d="M283.271 270.318C283.271 208.453 233.115 158.297 171.25 158.297C109.38 158.297 59.2291 208.453 59.2291 270.318" fill="#E10076"/>
<path d="M170.047 205.151L203.786 146.724L227.219 106.136L227.224 106.13L231.177 99.2866C232.938 95.7866 234.406 92.1043 235.547 88.2918C237.417 82.073 238.411 75.4845 238.411 68.6668C238.411 30.9064 207.646 0.265732 169.88 0.421982C132.323 0.578232 101.927 31.073 101.927 68.6668V68.8699C101.953 78.4324 104.521 87.8126 109.188 96.1616L170.047 205.151Z" fill="white"/>
<path d="M200.635 63.1823C200.635 79.3333 187.542 92.4271 171.385 92.4271C155.234 92.4271 142.141 79.3333 142.141 63.1823C142.141 47.0312 155.234 33.9375 171.385 33.9375C187.542 33.9375 200.635 47.0312 200.635 63.1823Z" fill="#4DD973"/>
<path d="M145.896 270.318C145.896 230.172 113.349 197.63 73.2031 197.63C33.0573 197.63 0.510376 230.172 0.510376 270.318" fill="#5547FF"/>
<path d="M341.984 270.318C341.984 230.172 309.443 197.63 269.297 197.63C229.151 197.63 196.604 230.172 196.604 270.318" fill="#FBB016"/>
</svg>
