<svg width="338" height="226" viewBox="0 0 338 226" fill="none" xmlns="http://www.w3.org/2000/svg">
<path d="M225.203 113.125C225.203 175.297 174.807 225.693 112.635 225.693C50.4687 225.693 0.067627 175.297 0.067627 113.125C0.067627 50.9584 50.4687 0.557373 112.635 0.557373C174.807 0.557373 225.203 50.9584 225.203 113.125Z" fill="white"/>
<path d="M225.203 225.693C287.375 225.693 337.771 175.297 337.771 113.125C337.771 50.9584 287.375 0.557373 225.203 0.557373" fill="#F8C900"/>
<path d="M173.802 114.349C173.802 148.13 146.417 175.516 112.635 175.516C78.8542 175.516 51.4688 148.13 51.4688 114.349C51.4688 80.5678 78.8542 53.1824 112.635 53.1824C146.417 53.1824 173.802 80.5678 173.802 114.349Z" fill="#E10076"/>
</svg>
