<?xml version="1.0" encoding="UTF-8"?>
<svg id="Capa_2" xmlns="http://www.w3.org/2000/svg" viewBox="0 0 492.7 426.59">
  <defs>
    <style>
      .cls-1 {
        fill: #161616;
      }
    </style>
  </defs>
  <g id="Capa_1-2" data-name="Capa_1">
    <g id="Flecha_voces_de_IXCAPE">
      <g>
        <path class="cls-1" d="M365.63,0c-1.65,80.54,30.41,189.9,127.07,191.83,0,0,0,33.84,0,33.84-120.82,5.72-177.25-121.87-181.52-225.68,0,0,54.46,0,54.46,0h0Z"/>
        <path class="cls-1" d="M311.17,426.59c4.25-103.77,60.76-231.44,181.53-225.67,0,0,0,33.84,0,33.84-43.94,2.01-79.75,25.08-99.65,64.11-20,37.45-27.62,85.8-27.42,127.72,0,0-54.46,0-54.46,0h0Z"/>
        <rect class="cls-1" y="187.35" width="453.82" height="54.46"/>
      </g>
    </g>
  </g>
</svg>