<?xml version="1.0" encoding="UTF-8"?>
<svg id="Capa_2" xmlns="http://www.w3.org/2000/svg" viewBox="0 0 519.7 603.93">
  <g id="Capa_1-2" data-name="Capa_1">
    <g>
      <rect x="49.39" y="75.35" width="38.26" height="38.26" transform="translate(137.04 188.96) rotate(-180)"/>
      <rect x="202.33" y="38.6" width="38.26" height="38.26"/>
      <rect x="278.81" y="38.6" width="38.26" height="38.26" transform="translate(595.87 115.46) rotate(-180)"/>
      <rect x="240.57" y="38.6" width="38.26" height="38.26" transform="translate(519.39 115.46) rotate(-180)"/>
      <rect x="240.57" y="0" width="38.26" height="38.26" transform="translate(519.39 38.26) rotate(-180)"/>
      <rect x="49.39" y="112.84" width="38.26" height="38.26" transform="translate(137.04 263.93) rotate(-180)"/>
      <rect x="164.09" y="76.46" width="38.26" height="38.26"/>
      <rect x="202.33" y="76.46" width="38.26" height="38.26"/>
      <rect x="278.81" y="76.46" width="38.26" height="38.26" transform="translate(595.87 191.18) rotate(-180)"/>
      <rect x="240.57" y="76.46" width="38.26" height="38.26" transform="translate(519.39 191.18) rotate(-180)"/>
      <rect x="317.05" y="76.46" width="38.26" height="38.26"/>
      <rect x="125.85" y="113.58" width="38.26" height="38.26" transform="translate(289.96 265.42) rotate(-180)"/>
      <rect x="164.09" y="113.58" width="38.26" height="38.26"/>
      <rect x="240.57" y="113.58" width="38.26" height="38.26" transform="translate(519.39 265.42) rotate(-180)"/>
      <rect x="317.05" y="113.58" width="38.26" height="38.26"/>
      <rect x="355.28" y="113.58" width="38.26" height="38.26"/>
      <rect x="125.85" y="151.44" width="38.26" height="38.26" transform="translate(289.96 341.14) rotate(-180)"/>
      <rect x="202.33" y="151.44" width="38.26" height="38.26"/>
      <rect x="278.81" y="151.44" width="38.26" height="38.26" transform="translate(595.87 341.14) rotate(-180)"/>
      <rect x="240.57" y="151.44" width="38.26" height="38.26" transform="translate(519.39 341.14) rotate(-180)"/>
      <rect x="355.28" y="151.44" width="38.26" height="38.26"/>
      <rect x="240.57" y="189.3" width="38.26" height="38.26" transform="translate(519.39 416.86) rotate(-180)"/>
      <rect y="75.35" width="38.26" height="38.26"/>
      <rect x="125.85" y="227.16" width="38.26" height="38.26" transform="translate(289.96 492.58) rotate(-180)"/>
      <rect x="87.61" y="227.16" width="38.26" height="38.26" transform="translate(213.48 492.58) rotate(-180)"/>
      <rect x="202.33" y="227.16" width="38.26" height="38.26"/>
      <rect x="278.81" y="227.16" width="38.26" height="38.26" transform="translate(595.87 492.58) rotate(-180)"/>
      <rect x="240.57" y="227.16" width="38.26" height="38.26" transform="translate(519.39 492.58) rotate(-180)"/>
      <rect x="355.28" y="227.16" width="38.26" height="38.26"/>
      <rect x="393.52" y="227.16" width="38.26" height="38.26" transform="translate(825.3 492.58) rotate(-180)"/>
      <rect y="112.84" width="38.26" height="38.26"/>
      <rect x="481.44" y="74.61" width="38.26" height="38.26" transform="translate(1001.14 187.47) rotate(-180)"/>
      <rect x="481.44" y="112.1" width="38.26" height="38.26" transform="translate(1001.14 262.45) rotate(-180)"/>
      <rect x="432.05" y="74.61" width="38.26" height="38.26"/>
      <rect x="432.05" y="112.1" width="38.26" height="38.26"/>
      <rect x="49.37" y="264.28" width="38.26" height="38.26"/>
      <rect x="125.85" y="264.28" width="38.26" height="38.26" transform="translate(289.96 566.82) rotate(-180)"/>
      <rect x="87.61" y="264.28" width="38.26" height="38.26" transform="translate(213.48 566.82) rotate(-180)"/>
      <rect x="164.09" y="264.28" width="38.26" height="38.26"/>
      <rect x="202.33" y="264.28" width="38.26" height="38.26"/>
      <rect x="278.81" y="264.28" width="38.26" height="38.26" transform="translate(595.87 566.82) rotate(-180)"/>
      <rect x="317.05" y="264.28" width="38.26" height="38.26"/>
      <rect x="355.28" y="264.28" width="38.26" height="38.26"/>
      <rect x="431.76" y="264.28" width="38.26" height="38.26" transform="translate(901.78 566.82) rotate(-180)"/>
      <rect x="393.52" y="264.28" width="38.26" height="38.26" transform="translate(825.3 566.82) rotate(-180)"/>
      <rect x="11.14" y="302.14" width="38.26" height="38.26"/>
      <rect x="87.61" y="302.14" width="38.26" height="38.26" transform="translate(213.48 642.54) rotate(-180)"/>
      <rect x="164.09" y="302.14" width="38.26" height="38.26"/>
      <rect x="202.33" y="302.14" width="38.26" height="38.26"/>
      <rect x="278.81" y="302.14" width="38.26" height="38.26" transform="translate(595.87 642.54) rotate(-180)"/>
      <rect x="240.57" y="302.14" width="38.26" height="38.26" transform="translate(519.39 642.54) rotate(-180)"/>
      <rect x="317.05" y="302.14" width="38.26" height="38.26"/>
      <rect x="393.52" y="302.14" width="38.26" height="38.26" transform="translate(825.3 642.54) rotate(-180)"/>
      <rect x="11.14" y="340" width="38.26" height="38.26"/>
      <rect x="87.61" y="340" width="38.26" height="38.26" transform="translate(213.48 718.26) rotate(-180)"/>
      <rect x="202.33" y="340" width="38.26" height="38.26"/>
      <rect x="278.81" y="340" width="38.26" height="38.26" transform="translate(595.87 718.26) rotate(-180)"/>
      <rect x="240.57" y="340" width="38.26" height="38.26" transform="translate(519.39 718.26) rotate(-180)"/>
      <rect x="393.52" y="340" width="38.26" height="38.26" transform="translate(825.3 718.26) rotate(-180)"/>
      <rect x="164.09" y="377.86" width="38.26" height="38.26"/>
      <rect x="240.57" y="377.86" width="38.26" height="38.26" transform="translate(519.39 793.98) rotate(-180)"/>
      <rect x="317.05" y="377.86" width="38.26" height="38.26"/>
      <rect x="125.85" y="414.98" width="38.26" height="38.26" transform="translate(289.96 868.21) rotate(-180)"/>
      <rect x="202.33" y="414.98" width="38.26" height="38.26"/>
      <rect x="278.81" y="414.98" width="38.26" height="38.26" transform="translate(595.87 868.21) rotate(-180)"/>
      <rect x="355.28" y="414.98" width="38.26" height="38.26"/>
      <rect x="87.61" y="452.84" width="38.26" height="38.26" transform="translate(213.48 943.93) rotate(-180)"/>
      <rect x="164.09" y="452.84" width="38.26" height="38.26"/>
      <rect x="240.57" y="452.84" width="38.26" height="38.26" transform="translate(519.39 943.93) rotate(-180)"/>
      <rect x="317.05" y="452.84" width="38.26" height="38.26"/>
      <rect x="393.52" y="452.84" width="38.26" height="38.26" transform="translate(825.3 943.93) rotate(-180)"/>
      <rect x="49.37" y="490.7" width="38.26" height="38.26"/>
      <rect x="125.85" y="490.7" width="38.26" height="38.26" transform="translate(289.96 1019.65) rotate(-180)"/>
      <rect x="202.33" y="490.7" width="38.26" height="38.26"/>
      <rect x="278.81" y="490.7" width="38.26" height="38.26" transform="translate(595.87 1019.65) rotate(-180)"/>
      <rect x="355.28" y="490.7" width="38.26" height="38.26"/>
      <rect x="431.76" y="490.7" width="38.26" height="38.26" transform="translate(901.78 1019.65) rotate(-180)"/>
      <rect x="164.09" y="528.56" width="38.26" height="38.26"/>
      <rect x="202.33" y="528.56" width="38.26" height="38.26"/>
      <rect x="278.81" y="528.56" width="38.26" height="38.26" transform="translate(595.87 1095.37) rotate(-180)"/>
      <rect x="317.05" y="528.56" width="38.26" height="38.26"/>
      <rect x="125.85" y="565.68" width="38.26" height="38.26" transform="translate(289.96 1169.61) rotate(-180)"/>
      <rect x="164.09" y="565.68" width="38.26" height="38.26"/>
      <rect x="202.33" y="565.68" width="38.26" height="38.26"/>
      <rect x="278.81" y="565.68" width="38.26" height="38.26" transform="translate(595.87 1169.61) rotate(-180)"/>
      <rect x="317.05" y="565.68" width="38.26" height="38.26"/>
      <rect x="355.28" y="565.68" width="38.26" height="38.26"/>
      <rect x="469.91" y="302.14" width="38.26" height="38.26"/>
      <rect x="469.91" y="340" width="38.26" height="38.26"/>
    </g>
  </g>
</svg>