<svg width="1072" height="1088" viewBox="0 0 1072 1088" fill="none" xmlns="http://www.w3.org/2000/svg">
<mask id="mask0_283_1085" style="mask-type:luminance" maskUnits="userSpaceOnUse" x="0" y="0" width="1072" height="1088">
<path d="M0.333313 0H1072V1088H0.333313V0Z" fill="white"/>
</mask>
<g mask="url(#mask0_283_1085)">
<mask id="mask1_283_1085" style="mask-type:luminance" maskUnits="userSpaceOnUse" x="0" y="1" width="1072" height="1087">
<path d="M45.4654 1.28125C20.6281 1.28125 0.491089 42.4948 0.491089 93.3281V995.823C0.491089 1046.66 20.6281 1087.87 45.4654 1087.87H1026.53C1051.37 1087.87 1071.51 1046.66 1071.51 995.823V93.3281C1071.51 42.4948 1051.37 1.28125 1026.53 1.28125H45.4654Z" fill="white"/>
</mask>
<g mask="url(#mask1_283_1085)">
<path d="M1026.53 1.28125H45.4654C20.6281 1.28125 0.491089 42.4948 0.491089 93.3281V995.823C0.491089 1046.66 20.6281 1087.87 45.4654 1087.87H1026.53C1051.37 1087.87 1071.51 1046.66 1071.51 995.823V93.3281C1071.51 42.4948 1051.37 1.28125 1026.53 1.28125Z" fill="#EDEDED"/>
</g>
</g>
<mask id="mask2_283_1085" style="mask-type:luminance" maskUnits="userSpaceOnUse" x="695" y="801" width="94" height="94">
<path d="M695 801.333H788.333V894.666H695V801.333Z" fill="white"/>
</mask>
<g mask="url(#mask2_283_1085)">
<mask id="mask3_283_1085" style="mask-type:luminance" maskUnits="userSpaceOnUse" x="0" y="1" width="2193" height="1087">
<path d="M92.7031 1.28125C41.8698 1.28125 0.65625 42.4948 0.65625 93.3281V995.823C0.65625 1046.66 41.8698 1087.87 92.7031 1087.87H2100.61C2151.45 1087.87 2192.66 1046.66 2192.66 995.823V93.3281C2192.66 42.4948 2151.45 1.28125 2100.61 1.28125H92.7031Z" fill="white"/>
</mask>
<g mask="url(#mask3_283_1085)">
<path d="M787.609 893.75H695.911V802.052H787.609V893.75Z" fill="#FBB016"/>
</g>
</g>
<mask id="mask4_283_1085" style="mask-type:luminance" maskUnits="userSpaceOnUse" x="603" y="709" width="94" height="94">
<path d="M603 709.333H696.333V802.666H603V709.333Z" fill="white"/>
</mask>
<g mask="url(#mask4_283_1085)">
<mask id="mask5_283_1085" style="mask-type:luminance" maskUnits="userSpaceOnUse" x="0" y="1" width="2193" height="1087">
<path d="M92.7031 1.28125C41.8698 1.28125 0.65625 42.4948 0.65625 93.3281V995.823C0.65625 1046.66 41.8698 1087.87 92.7031 1087.87H2100.61C2151.45 1087.87 2192.66 1046.66 2192.66 995.823V93.3281C2192.66 42.4948 2151.45 1.28125 2100.61 1.28125H92.7031Z" fill="white"/>
</mask>
<g mask="url(#mask5_283_1085)">
<path d="M695.911 802.057H604.214V710.359H695.911V802.057Z" fill="#E20077"/>
</g>
</g>
<mask id="mask6_283_1085" style="mask-type:luminance" maskUnits="userSpaceOnUse" x="512" y="617" width="93" height="94">
<path d="M512.333 617.333H604.333V710.666H512.333V617.333Z" fill="white"/>
</mask>
<g mask="url(#mask6_283_1085)">
<mask id="mask7_283_1085" style="mask-type:luminance" maskUnits="userSpaceOnUse" x="0" y="1" width="2193" height="1087">
<path d="M92.7031 1.28125C41.8698 1.28125 0.65625 42.4948 0.65625 93.3281V995.823C0.65625 1046.66 41.8698 1087.87 92.7031 1087.87H2100.61C2151.45 1087.87 2192.66 1046.66 2192.66 995.823V93.3281C2192.66 42.4948 2151.45 1.28125 2100.61 1.28125H92.7031Z" fill="white"/>
</mask>
<g mask="url(#mask7_283_1085)">
<path d="M604.214 710.359H512.516V618.661H604.214V710.359Z" fill="#4DD973"/>
</g>
</g>
<mask id="mask8_283_1085" style="mask-type:luminance" maskUnits="userSpaceOnUse" x="328" y="617" width="94" height="94">
<path d="M328.333 617.333H421.667V710.666H328.333V617.333Z" fill="white"/>
</mask>
<g mask="url(#mask8_283_1085)">
<mask id="mask9_283_1085" style="mask-type:luminance" maskUnits="userSpaceOnUse" x="0" y="1" width="2193" height="1087">
<path d="M92.7031 1.28125C41.8698 1.28125 0.65625 42.4948 0.65625 93.3281V995.823C0.65625 1046.66 41.8698 1087.87 92.7031 1087.87H2100.61C2151.45 1087.87 2192.66 1046.66 2192.66 995.823V93.3281C2192.66 42.4948 2151.45 1.28125 2100.61 1.28125H92.7031Z" fill="white"/>
</mask>
<g mask="url(#mask9_283_1085)">
<path d="M420.818 710.359H329.125V618.661H420.818V710.359Z" fill="#4DD973"/>
</g>
</g>
<mask id="mask10_283_1085" style="mask-type:luminance" maskUnits="userSpaceOnUse" x="420" y="526" width="94" height="93">
<path d="M420.333 526.667H513.667V618.667H420.333V526.667Z" fill="white"/>
</mask>
<g mask="url(#mask10_283_1085)">
<mask id="mask11_283_1085" style="mask-type:luminance" maskUnits="userSpaceOnUse" x="0" y="1" width="2193" height="1087">
<path d="M92.7031 1.28125C41.8698 1.28125 0.65625 42.4948 0.65625 93.3281V995.823C0.65625 1046.66 41.8698 1087.87 92.7031 1087.87H2100.61C2151.45 1087.87 2192.66 1046.66 2192.66 995.823V93.3281C2192.66 42.4948 2151.45 1.28125 2100.61 1.28125H92.7031Z" fill="white"/>
</mask>
<g mask="url(#mask11_283_1085)">
<path d="M512.516 618.662H420.818V526.964H512.516V618.662Z" fill="#4DD973"/>
</g>
</g>
<mask id="mask12_283_1085" style="mask-type:luminance" maskUnits="userSpaceOnUse" x="420" y="617" width="94" height="94">
<path d="M420.333 617.333H513.667V710.666H420.333V617.333Z" fill="white"/>
</mask>
<g mask="url(#mask12_283_1085)">
<mask id="mask13_283_1085" style="mask-type:luminance" maskUnits="userSpaceOnUse" x="0" y="1" width="2193" height="1087">
<path d="M92.7031 1.28125C41.8698 1.28125 0.65625 42.4948 0.65625 93.3281V995.823C0.65625 1046.66 41.8698 1087.87 92.7031 1087.87H2100.61C2151.45 1087.87 2192.66 1046.66 2192.66 995.823V93.3281C2192.66 42.4948 2151.45 1.28125 2100.61 1.28125H92.7031Z" fill="white"/>
</mask>
<g mask="url(#mask13_283_1085)">
<path d="M512.516 710.359H420.818V618.661H512.516V710.359Z" fill="#FBB016"/>
</g>
</g>
<mask id="mask14_283_1085" style="mask-type:luminance" maskUnits="userSpaceOnUse" x="420" y="709" width="94" height="94">
<path d="M420.333 709.333H513.667V802.666H420.333V709.333Z" fill="white"/>
</mask>
<g mask="url(#mask14_283_1085)">
<mask id="mask15_283_1085" style="mask-type:luminance" maskUnits="userSpaceOnUse" x="0" y="1" width="2193" height="1087">
<path d="M92.7031 1.28125C41.8698 1.28125 0.65625 42.4948 0.65625 93.3281V995.823C0.65625 1046.66 41.8698 1087.87 92.7031 1087.87H2100.61C2151.45 1087.87 2192.66 1046.66 2192.66 995.823V93.3281C2192.66 42.4948 2151.45 1.28125 2100.61 1.28125H92.7031Z" fill="white"/>
</mask>
<g mask="url(#mask15_283_1085)">
<path d="M512.516 802.057H420.818V710.359H512.516V802.057Z" fill="#4DD973"/>
</g>
</g>
<mask id="mask16_283_1085" style="mask-type:luminance" maskUnits="userSpaceOnUse" x="787" y="709" width="94" height="94">
<path d="M787 709.333H880.333V802.666H787V709.333Z" fill="white"/>
</mask>
<g mask="url(#mask16_283_1085)">
<mask id="mask17_283_1085" style="mask-type:luminance" maskUnits="userSpaceOnUse" x="0" y="1" width="2193" height="1087">
<path d="M92.7031 1.28125C41.8698 1.28125 0.65625 42.4948 0.65625 93.3281V995.823C0.65625 1046.66 41.8698 1087.87 92.7031 1087.87H2100.61C2151.45 1087.87 2192.66 1046.66 2192.66 995.823V93.3281C2192.66 42.4948 2151.45 1.28125 2100.61 1.28125H92.7031Z" fill="white"/>
</mask>
<g mask="url(#mask17_283_1085)">
<path d="M879.307 802.057H787.609V710.359H879.307V802.057Z" fill="#FBB016"/>
</g>
</g>
<mask id="mask18_283_1085" style="mask-type:luminance" maskUnits="userSpaceOnUse" x="787" y="617" width="94" height="94">
<path d="M787 617.333H880.333V710.666H787V617.333Z" fill="white"/>
</mask>
<g mask="url(#mask18_283_1085)">
<mask id="mask19_283_1085" style="mask-type:luminance" maskUnits="userSpaceOnUse" x="0" y="1" width="2193" height="1087">
<path d="M92.7031 1.28125C41.8698 1.28125 0.65625 42.4948 0.65625 93.3281V995.823C0.65625 1046.66 41.8698 1087.87 92.7031 1087.87H2100.61C2151.45 1087.87 2192.66 1046.66 2192.66 995.823V93.3281C2192.66 42.4948 2151.45 1.28125 2100.61 1.28125H92.7031Z" fill="white"/>
</mask>
<g mask="url(#mask19_283_1085)">
<path d="M879.307 710.359H787.609V618.661H879.307V710.359Z" fill="#FBB016"/>
</g>
</g>
<mask id="mask20_283_1085" style="mask-type:luminance" maskUnits="userSpaceOnUse" x="787" y="526" width="94" height="93">
<path d="M787 526.667H880.333V618.667H787V526.667Z" fill="white"/>
</mask>
<g mask="url(#mask20_283_1085)">
<mask id="mask21_283_1085" style="mask-type:luminance" maskUnits="userSpaceOnUse" x="0" y="1" width="2193" height="1087">
<path d="M92.7031 1.28125C41.8698 1.28125 0.65625 42.4948 0.65625 93.3281V995.823C0.65625 1046.66 41.8698 1087.87 92.7031 1087.87H2100.61C2151.45 1087.87 2192.66 1046.66 2192.66 995.823V93.3281C2192.66 42.4948 2151.45 1.28125 2100.61 1.28125H92.7031Z" fill="white"/>
</mask>
<g mask="url(#mask21_283_1085)">
<path d="M879.307 618.662H787.609V526.964H879.307V618.662Z" fill="#E20077"/>
</g>
</g>
<mask id="mask22_283_1085" style="mask-type:luminance" maskUnits="userSpaceOnUse" x="787" y="434" width="94" height="94">
<path d="M787 434.667H880.333V528H787V434.667Z" fill="white"/>
</mask>
<g mask="url(#mask22_283_1085)">
<mask id="mask23_283_1085" style="mask-type:luminance" maskUnits="userSpaceOnUse" x="0" y="1" width="2193" height="1087">
<path d="M92.7031 1.28125C41.8698 1.28125 0.65625 42.4948 0.65625 93.3281V995.823C0.65625 1046.66 41.8698 1087.87 92.7031 1087.87H2100.61C2151.45 1087.87 2192.66 1046.66 2192.66 995.823V93.3281C2192.66 42.4948 2151.45 1.28125 2100.61 1.28125H92.7031Z" fill="white"/>
</mask>
<g mask="url(#mask23_283_1085)">
<path d="M879.307 526.964H787.609V435.266H879.307V526.964Z" fill="#4DD973"/>
</g>
</g>
<mask id="mask24_283_1085" style="mask-type:luminance" maskUnits="userSpaceOnUse" x="695" y="434" width="94" height="94">
<path d="M695 434.667H788.333V528H695V434.667Z" fill="white"/>
</mask>
<g mask="url(#mask24_283_1085)">
<mask id="mask25_283_1085" style="mask-type:luminance" maskUnits="userSpaceOnUse" x="0" y="1" width="2193" height="1087">
<path d="M92.7031 1.28125C41.8698 1.28125 0.65625 42.4948 0.65625 93.3281V995.823C0.65625 1046.66 41.8698 1087.87 92.7031 1087.87H2100.61C2151.45 1087.87 2192.66 1046.66 2192.66 995.823V93.3281C2192.66 42.4948 2151.45 1.28125 2100.61 1.28125H92.7031Z" fill="white"/>
</mask>
<g mask="url(#mask25_283_1085)">
<path d="M787.609 526.964H695.911V435.266H787.609V526.964Z" fill="#E20077"/>
</g>
</g>
<mask id="mask26_283_1085" style="mask-type:luminance" maskUnits="userSpaceOnUse" x="879" y="434" width="92" height="94">
<path d="M879 434.667H971V528H879V434.667Z" fill="white"/>
</mask>
<g mask="url(#mask26_283_1085)">
<mask id="mask27_283_1085" style="mask-type:luminance" maskUnits="userSpaceOnUse" x="0" y="1" width="2193" height="1087">
<path d="M92.7031 1.28125C41.8698 1.28125 0.65625 42.4948 0.65625 93.3281V995.823C0.65625 1046.66 41.8698 1087.87 92.7031 1087.87H2100.61C2151.45 1087.87 2192.66 1046.66 2192.66 995.823V93.3281C2192.66 42.4948 2151.45 1.28125 2100.61 1.28125H92.7031Z" fill="white"/>
</mask>
<g mask="url(#mask27_283_1085)">
<path d="M971 526.964H879.302V435.266H971V526.964Z" fill="#E20077"/>
</g>
</g>
<mask id="mask28_283_1085" style="mask-type:luminance" maskUnits="userSpaceOnUse" x="787" y="342" width="94" height="94">
<path d="M787 342.667H880.333V436H787V342.667Z" fill="white"/>
</mask>
<g mask="url(#mask28_283_1085)">
<mask id="mask29_283_1085" style="mask-type:luminance" maskUnits="userSpaceOnUse" x="0" y="1" width="2193" height="1087">
<path d="M92.7031 1.28125C41.8698 1.28125 0.65625 42.4948 0.65625 93.3281V995.823C0.65625 1046.66 41.8698 1087.87 92.7031 1087.87H2100.61C2151.45 1087.87 2192.66 1046.66 2192.66 995.823V93.3281C2192.66 42.4948 2151.45 1.28125 2100.61 1.28125H92.7031Z" fill="white"/>
</mask>
<g mask="url(#mask29_283_1085)">
<path d="M879.307 435.266H787.609V343.573H879.307V435.266Z" fill="#E20077"/>
</g>
</g>
<rect x="984" y="1001" width="88" height="86" fill="#EDEDED"/>
<rect x="984" y="1" width="88" height="86" fill="#EDEDED"/>
</svg>
