<svg width="1048" height="1077" viewBox="0 0 1048 1077" fill="none" xmlns="http://www.w3.org/2000/svg">
<path d="M1048 0H39.9622C15.683 0 -4.0001 41.0498 -4.0001 91.6852V985.32C-4.0001 1035.96 15.683 1077 39.9622 1077H1048C1048 1077 1048 1077 1048 985.32V91.6852C1048 41.0498 1048 0 1048 0Z" fill="#E8E8E8"/>
<path d="M342.146 412.609H450.943V521.411H342.146V412.609Z" fill="#4DD973"/>
<path d="M233.349 521.411H342.146V630.208H233.349V521.411Z" fill="#FBB016"/>
<path d="M342.146 521.411H450.943V630.208H342.146V521.411ZM450.943 521.411H559.745V630.208H450.943V521.411ZM70.146 630.208H178.948V739.005H70.146V630.208Z" fill="#E20077"/>
<path d="M178.948 630.208H287.745V739.005H178.948V630.208ZM287.745 630.208H396.542V739.005H287.745V630.208Z" fill="#4DD973"/>
<path d="M396.542 630.208H505.344V739.005H396.542V630.208Z" fill="#FBB016"/>
<path d="M505.344 630.208H614.141V739.005H505.344V630.208Z" fill="#E20077"/>
<path d="M614.14 630.208H722.943V739.005H614.14V630.208ZM178.948 739.005H287.745V847.807H178.948V739.005ZM287.745 739.005H396.542V847.807H287.745V739.005Z" fill="#E20077"/>
<path d="M396.542 739.005H505.344V847.807H396.542V739.005ZM505.344 739.005H614.14V847.807H505.344V739.005Z" fill="#FBB016"/>
<path d="M614.141 739.005H722.943V847.807H614.141V739.005Z" fill="#FBB016"/>
<path d="M722.943 739.005H831.739V847.807H722.943V739.005ZM178.948 838.156H287.745V946.958H178.948V838.156Z" fill="#E20077"/>
<path d="M287.745 838.156H396.542V946.958H287.745V838.156Z" fill="#4DD973"/>
<path d="M396.542 838.156H505.344V946.958H396.542V838.156Z" fill="#FBB016"/>
<path d="M505.344 838.156H614.141V946.958H505.344V838.156Z" fill="#5547FF"/>
<path d="M614.141 838.156H722.943V946.958H614.141V838.156Z" fill="#E20077"/>
<path d="M722.943 838.156H831.74V946.958H722.943V838.156Z" fill="#FBB016"/>
<path d="M831.74 838.156H940.537V946.958H831.74V838.156Z" fill="#E20077"/>
</svg>
