<svg width="2560" height="2485" viewBox="0 0 2560 2485" fill="none" xmlns="http://www.w3.org/2000/svg">
<path d="M0 34.2241V97.7814L33.8594 131.636L99.4948 66.0002L33.8594 0.364746L0 34.2241Z" fill="#161616"/>
<path d="M99.2603 66.0002L164.901 0.364746L230.531 66.0002L164.896 131.636L99.2603 66.0002Z" fill="#161616"/>
<path d="M230.302 66.0002L295.938 0.364746L361.573 66.0002L295.938 131.636L230.302 66.0002Z" fill="#161616"/>
<path d="M361.338 66.0002L426.979 0.364746L492.609 66.0002L426.974 131.636L361.338 66.0002Z" fill="#161616"/>
<path d="M492.38 66.0002L558.016 0.364746L623.651 66.0002L558.016 131.636L492.38 66.0002ZM754.458 66.0002L820.094 0.364746L885.729 66.0002L820.094 131.636L754.458 66.0002Z" fill="#161616"/>
<path d="M885.495 66.0002L951.135 0.364746L1016.77 66.0002L951.13 131.636L885.495 66.0002Z" fill="#161616"/>
<path d="M1016.54 66.0002L1082.17 0.364746L1147.81 66.0002L1082.17 131.636L1016.54 66.0002Z" fill="#161616"/>
<path d="M1147.57 66.0002L1213.21 0.364746L1278.84 66.0002L1213.21 131.636L1147.57 66.0002Z" fill="#161616"/>
<path d="M1278.61 66.0002L1344.25 0.364746L1409.89 66.0002L1344.25 131.636L1278.61 66.0002Z" fill="#161616"/>
<path d="M1409.65 66.0002L1475.29 0.364746L1540.92 66.0002L1475.29 131.636L1409.65 66.0002Z" fill="#161616"/>
<path d="M1540.69 66.0002L1606.33 0.364746L1671.96 66.0002L1606.33 131.636L1540.69 66.0002Z" fill="#161616"/>
<path d="M1671.73 66.0002L1737.36 0.364746L1803 66.0002L1737.36 131.636L1671.73 66.0002Z" fill="#161616"/>
<path d="M1802.77 66.0002L1868.41 0.364746L1934.04 66.0002L1868.41 131.636L1802.77 66.0002Z" fill="#161616"/>
<path d="M1933.81 66.0002L1999.45 0.364746L2065.08 66.0002L1999.44 131.636L1933.81 66.0002ZM623.417 66.0002L689.052 0.364746L754.687 66.0002L689.052 131.636L623.417 66.0002Z" fill="#161616"/>
<path d="M1933.81 66.0002L1999.45 0.364746L2065.08 66.0002L1999.44 131.636L1933.81 66.0002Z" fill="#161616"/>
<path d="M2064.85 66.0002L2130.48 0.364746L2196.12 66.0002L2130.48 131.636L2064.85 66.0002Z" fill="#161616"/>
<path d="M2195.89 66.0002L2261.53 0.364746L2327.16 66.0002L2261.52 131.636L2195.89 66.0002Z" fill="#161616"/>
<path d="M2326.93 66.0002L2392.56 0.364746L2458.2 66.0002L2392.56 131.636L2326.93 66.0002Z" fill="#161616"/>
<path d="M2458 65.6354L2523.64 0L2589.27 65.6354L2523.64 131.271L2458 65.6354Z" fill="#161616"/>
<path d="M0.515625 2485H2558.73V63.6665H0.515625V2485Z" fill="#161616"/>
<path d="M25.2762 2024.21H-26.8071V1972.13H25.2762V2024.21Z" fill="#E20077"/>
<path d="M77.3333 2024.21H25.25V1972.13H77.3333V2024.21Z" fill="#E20077"/>
<path d="M77.3075 2074.74H129.391V2022.66H77.3075V2074.74ZM25.2762 2074.74H-26.8071V2022.66H25.2762V2074.74Z" fill="#E20077"/>
<path d="M77.3333 2074.74H25.25V2022.66H77.3333V2074.74Z" fill="#E20077"/>
<path d="M77.3075 2126.28H129.391V2074.2H77.3075V2126.28ZM25.2762 2126.28H-26.8071V2074.2H25.2762V2126.28Z" fill="#E20077"/>
<path d="M77.3075 2177.82H129.391V2125.74H77.3075V2177.82ZM25.2762 2177.82H-26.8071V2125.74H25.2762V2177.82Z" fill="#E20077"/>
<path d="M389.161 2024.88H337.078V1972.8H389.161V2024.88Z" fill="#4DD973"/>
<path d="M77.3333 2229.36H25.25V2177.28H77.3333V2229.36Z" fill="#E20077"/>
<path d="M77.3333 2177.82H25.25V2125.74H77.3333V2177.82Z" fill="#E20077"/>
<path d="M389.13 2075.41H441.214V2023.33H389.13V2075.41ZM337.104 2075.41H285.021V2023.33H337.104V2075.41Z" fill="#FBB016"/>
<path d="M232.963 2075.41H285.047V2023.33H232.963V2075.41ZM441.187 2126.95H493.271V2074.87H441.187V2126.95Z" fill="#4DD973"/>
<path d="M232.963 2126.95H285.047V2074.87H232.963V2126.95Z" fill="#4DD973"/>
<path d="M180.912 2126.95H232.995V2074.87H180.912V2126.95ZM337.104 2178.49H285.021V2126.41H337.104V2178.49Z" fill="#4DD973"/>
<path d="M389.161 2230.03H337.078V2177.95H389.161V2230.03Z" fill="#FBB016"/>
<path d="M180.912 2230.03H232.995V2177.95H180.912V2230.03Z" fill="#161616"/>
<path d="M232.963 2280.56H285.047V2228.48H232.963V2280.56Z" fill="#FBB016"/>
<path d="M180.937 2280.56H128.854V2228.48H180.937V2280.56ZM24.7446 2280.56H76.8228V2228.48H24.7446V2280.56Z" fill="#E20077"/>
<path d="M337.104 2332.1H285.021V2280.02H337.104V2332.1Z" fill="#4DD973"/>
<path d="M180.911 2332.1H232.995V2280.02H180.911V2332.1ZM128.88 2332.1H76.7969V2280.02H128.88V2332.1ZM-27.3125 2332.1H24.7708V2280.02H-27.3125V2332.1Z" fill="#E20077"/>
<path d="M389.161 2383.64H337.078V2331.56H389.161V2383.64ZM232.963 2383.64H285.047V2331.56H232.963V2383.64Z" fill="#5547FF"/>
<path d="M180.937 2383.64H128.854V2331.56H180.937V2383.64ZM24.7446 2383.64H76.8228V2331.56H24.7446V2383.64Z" fill="#FBB016"/>
<path d="M389.13 2435.18H441.214V2383.1H389.13V2435.18Z" fill="#5547FF"/>
<path d="M337.104 2435.18H285.021V2383.1H337.104V2435.18Z" fill="#4DD973"/>
<path d="M180.937 2435.18H128.854V2383.1H180.937V2435.18ZM24.7446 2435.18H76.8228V2383.1H24.7446V2435.18Z" fill="#FBB016"/>
<mask id="mask0_298_1097" style="mask-type:luminance" maskUnits="userSpaceOnUse" x="336" y="2433" width="54" height="52">
<path d="M336 2433.33H389.333V2484.33H336V2433.33Z" fill="white"/>
</mask>
<g mask="url(#mask0_298_1097)">
<path d="M389.161 2485.71H337.078V2433.63H389.161V2485.71Z" fill="#5547FF"/>
</g>
<mask id="mask1_298_1097" style="mask-type:luminance" maskUnits="userSpaceOnUse" x="180" y="2433" width="54" height="52">
<path d="M180 2433.33H233.333V2484.33H180V2433.33Z" fill="white"/>
</mask>
<g mask="url(#mask1_298_1097)">
<path d="M180.912 2485.71H232.995V2433.63H180.912V2485.71Z" fill="#4DD973"/>
</g>
<mask id="mask2_298_1097" style="mask-type:luminance" maskUnits="userSpaceOnUse" x="128" y="2433" width="54" height="52">
<path d="M128 2433.33H181.333V2484.33H128V2433.33Z" fill="white"/>
</mask>
<g mask="url(#mask2_298_1097)">
<path d="M180.937 2485.71H128.854V2433.63H180.937V2485.71Z" fill="#FBB016"/>
</g>
<mask id="mask3_298_1097" style="mask-type:luminance" maskUnits="userSpaceOnUse" x="0" y="2433" width="26" height="52">
<path d="M0 2433.33H25.3333V2484.33H0V2433.33Z" fill="white"/>
</mask>
<g mask="url(#mask3_298_1097)">
<path d="M-27.3125 2485.71H24.7708V2433.63H-27.3125V2485.71Z" fill="#FBB016"/>
</g>
<path d="M805.276 2179.34H753.193V2127.26H805.276V2179.34Z" fill="#E20077"/>
<path d="M805.276 2230.88H753.193V2178.8H805.276V2230.88Z" fill="#E20077"/>
<path d="M857.333 2230.88H805.25V2178.8H857.333V2230.88ZM701.141 2230.88H753.219V2178.8H701.141V2230.88Z" fill="#E20077"/>
<path d="M857.307 2281.41H909.391V2229.33H857.307V2281.41ZM805.276 2281.41H753.193V2229.33H805.276V2281.41Z" fill="#E20077"/>
<path d="M857.333 2281.41H805.25V2229.33H857.333V2281.41ZM701.141 2281.41H753.219V2229.33H701.141V2281.41Z" fill="#E20077"/>
<path d="M649.083 2281.41H701.167V2229.33H649.083V2281.41ZM857.307 2332.95H909.391V2280.86H857.307V2332.95ZM805.276 2332.95H753.193V2280.86H805.276V2332.95Z" fill="#E20077"/>
<path d="M649.083 2332.95H701.167V2280.86H649.083V2332.95ZM597.052 2332.95H544.974V2280.86H597.052V2332.95Z" fill="#FBB016"/>
<path d="M857.307 2384.49H909.391V2332.41H857.307V2384.49ZM805.276 2384.49H753.193V2332.41H805.276V2384.49ZM649.083 2384.49H701.167V2332.41H649.083V2384.49Z" fill="#E20077"/>
<path d="M649.109 2384.49H597.026V2332.41H649.109V2384.49Z" fill="#FBB016"/>
<path d="M1169.16 2231.55H1117.08V2179.46H1169.16V2231.55Z" fill="#4DD973"/>
<path d="M857.333 2436.03H805.25V2383.95H857.333V2436.03Z" fill="#E20077"/>
<path d="M857.333 2384.49H805.25V2332.41H857.333V2384.49ZM753.245 2384.49H701.162V2332.41H753.245V2384.49Z" fill="#E20077"/>
<path d="M701.141 2436.03H753.219V2383.95H701.141V2436.03Z" fill="#FBB016"/>
<path d="M649.083 2436.03H701.167V2383.95H649.083V2436.03Z" fill="#E20077"/>
<path d="M1169.13 2282.08H1221.21V2230H1169.13V2282.08ZM1117.1 2282.08H1065.02V2230H1117.1V2282.08Z" fill="#FBB016"/>
<path d="M1012.96 2282.08H1065.05V2230H1012.96V2282.08ZM1221.19 2333.62H1273.27V2281.54H1221.19V2333.62Z" fill="#4DD973"/>
<path d="M1012.96 2333.62H1065.05V2281.54H1012.96V2333.62Z" fill="#4DD973"/>
<path d="M960.912 2333.62H1012.99V2281.54H960.912V2333.62ZM1117.1 2385.16H1065.02V2333.07H1117.1V2385.16Z" fill="#4DD973"/>
<path d="M1169.16 2436.7H1117.08V2384.61H1169.16V2436.7ZM960.912 2436.7H1012.99V2384.61H960.912V2436.7Z" fill="#FBB016"/>
<mask id="mask4_298_1097" style="mask-type:luminance" maskUnits="userSpaceOnUse" x="1012" y="2434" width="54" height="51">
<path d="M1012 2434.67H1065.33V2484.33H1012V2434.67Z" fill="white"/>
</mask>
<g mask="url(#mask4_298_1097)">
<path d="M1012.96 2487.23H1065.05V2435.15H1012.96V2487.23Z" fill="#5547FF"/>
</g>
<mask id="mask5_298_1097" style="mask-type:luminance" maskUnits="userSpaceOnUse" x="908" y="2434" width="54" height="51">
<path d="M908 2434.67H961.333V2484.33H908V2434.67Z" fill="white"/>
</mask>
<g mask="url(#mask5_298_1097)">
<path d="M960.937 2487.23H908.854V2435.15H960.937V2487.23Z" fill="#E20077"/>
</g>
<mask id="mask6_298_1097" style="mask-type:luminance" maskUnits="userSpaceOnUse" x="804" y="2434" width="54" height="51">
<path d="M804 2434.67H857.333V2484.33H804V2434.67Z" fill="white"/>
</mask>
<g mask="url(#mask6_298_1097)">
<path d="M804.745 2487.23H856.823V2435.15H804.745V2487.23Z" fill="#E20077"/>
</g>
<mask id="mask7_298_1097" style="mask-type:luminance" maskUnits="userSpaceOnUse" x="700" y="2434" width="54" height="51">
<path d="M700 2434.67H753.333V2484.33H700V2434.67Z" fill="white"/>
</mask>
<g mask="url(#mask7_298_1097)">
<path d="M752.714 2487.23H700.63V2435.15H752.714V2487.23Z" fill="#5547FF"/>
</g>
<path d="M493.037 2281.41H545.12V2229.33H493.037V2281.41Z" fill="#FBB016"/>
<path d="M2229.28 2176.67H2177.19V2124.59H2229.28V2176.67Z" fill="#E20077"/>
<path d="M2229.28 2228.21H2177.19V2176.13H2229.28V2228.21Z" fill="#E20077"/>
<path d="M2281.33 2228.21H2229.25V2176.13H2281.33V2228.21ZM2125.14 2228.21H2177.22V2176.13H2125.14V2228.21Z" fill="#E20077"/>
<path d="M2281.31 2278.74H2333.39V2226.66H2281.31V2278.74ZM2229.28 2278.74H2177.19V2226.66H2229.28V2278.74Z" fill="#E20077"/>
<path d="M2281.33 2278.74H2229.25V2226.66H2281.33V2278.74ZM2125.14 2278.74H2177.22V2226.66H2125.14V2278.74Z" fill="#E20077"/>
<path d="M2073.08 2278.74H2125.17V2226.66H2073.08V2278.74ZM2281.31 2330.28H2333.39V2278.2H2281.31V2330.28ZM2229.28 2330.28H2177.19V2278.2H2229.28V2330.28Z" fill="#E20077"/>
<path d="M2073.08 2330.28H2125.17V2278.2H2073.08V2330.28ZM2021.05 2330.28H1968.97V2278.2H2021.05V2330.28Z" fill="#FBB016"/>
<path d="M2281.31 2381.82H2333.39V2329.74H2281.31V2381.82ZM2229.28 2381.82H2177.19V2329.74H2229.28V2381.82ZM2073.08 2381.82H2125.17V2329.74H2073.08V2381.82Z" fill="#E20077"/>
<path d="M2073.11 2381.82H2021.03V2329.74H2073.11V2381.82Z" fill="#FBB016"/>
<path d="M2593.16 2228.88H2541.08V2176.8H2593.16V2228.88Z" fill="#4DD973"/>
<path d="M2281.33 2433.36H2229.25V2381.28H2281.33V2433.36Z" fill="#E20077"/>
<path d="M2281.33 2381.82H2229.25V2329.74H2281.33V2381.82ZM2177.24 2381.82H2125.16V2329.74H2177.24V2381.82Z" fill="#E20077"/>
<path d="M2125.14 2433.36H2177.22V2381.28H2125.14V2433.36Z" fill="#FBB016"/>
<path d="M2073.08 2433.36H2125.17V2381.28H2073.08V2433.36Z" fill="#E20077"/>
<path d="M2541.1 2279.41H2489.02V2227.33H2541.1V2279.41Z" fill="#FBB016"/>
<path d="M2436.96 2279.41H2489.05V2227.33H2436.96V2279.41Z" fill="#4DD973"/>
<path d="M2436.96 2330.95H2489.05V2278.87H2436.96V2330.95Z" fill="#4DD973"/>
<path d="M2384.91 2330.95H2436.99V2278.87H2384.91V2330.95ZM2541.1 2382.49H2489.02V2330.41H2541.1V2382.49Z" fill="#4DD973"/>
<path d="M2593.16 2434.03H2541.08V2381.95H2593.16V2434.03ZM2384.91 2434.03H2436.99V2381.95H2384.91V2434.03Z" fill="#FBB016"/>
<mask id="mask8_298_1097" style="mask-type:luminance" maskUnits="userSpaceOnUse" x="2436" y="2432" width="54" height="53">
<path d="M2436 2432H2489.33V2484.33H2436V2432Z" fill="white"/>
</mask>
<g mask="url(#mask8_298_1097)">
<path d="M2436.96 2484.56H2489.05V2432.48H2436.96V2484.56Z" fill="#5547FF"/>
</g>
<mask id="mask9_298_1097" style="mask-type:luminance" maskUnits="userSpaceOnUse" x="2332" y="2432" width="54" height="53">
<path d="M2332 2432H2385.33V2484.33H2332V2432Z" fill="white"/>
</mask>
<g mask="url(#mask9_298_1097)">
<path d="M2384.94 2484.56H2332.85V2432.48H2384.94V2484.56Z" fill="#E20077"/>
</g>
<mask id="mask10_298_1097" style="mask-type:luminance" maskUnits="userSpaceOnUse" x="2228" y="2432" width="54" height="53">
<path d="M2228 2432H2281.33V2484.33H2228V2432Z" fill="white"/>
</mask>
<g mask="url(#mask10_298_1097)">
<path d="M2228.75 2484.56H2280.82V2432.48H2228.75V2484.56Z" fill="#E20077"/>
</g>
<mask id="mask11_298_1097" style="mask-type:luminance" maskUnits="userSpaceOnUse" x="2124" y="2432" width="54" height="53">
<path d="M2124 2432H2177.33V2484.33H2124V2432Z" fill="white"/>
</mask>
<g mask="url(#mask11_298_1097)">
<path d="M2176.71 2484.56H2124.63V2432.48H2176.71V2484.56Z" fill="#5547FF"/>
</g>
<mask id="mask12_298_1097" style="mask-type:luminance" maskUnits="userSpaceOnUse" x="2488" y="2484" width="54" height="1">
<path d="M2488 2484H2541.33V2484.33H2488V2484Z" fill="white"/>
</mask>
<g mask="url(#mask12_298_1097)">
<path d="M2541.1 2536.1H2489.02V2484.02H2541.1V2536.1Z" fill="#4DD973"/>
</g>
<mask id="mask13_298_1097" style="mask-type:luminance" maskUnits="userSpaceOnUse" x="2384" y="2484" width="54" height="1">
<path d="M2384 2484H2437.33V2484.33H2384V2484Z" fill="white"/>
</mask>
<g mask="url(#mask13_298_1097)">
<path d="M2384.91 2536.1H2436.99V2484.02H2384.91V2536.1Z" fill="#E20077"/>
</g>
<mask id="mask14_298_1097" style="mask-type:luminance" maskUnits="userSpaceOnUse" x="2280" y="2484" width="54" height="1">
<path d="M2280 2484H2333.33V2484.33H2280V2484Z" fill="white"/>
</mask>
<g mask="url(#mask14_298_1097)">
<path d="M2332.88 2536.1H2280.8V2484.02H2332.88V2536.1Z" fill="#E20077"/>
</g>
<mask id="mask15_298_1097" style="mask-type:luminance" maskUnits="userSpaceOnUse" x="2176" y="2484" width="54" height="1">
<path d="M2176 2484H2229.33V2484.33H2176V2484Z" fill="white"/>
</mask>
<g mask="url(#mask15_298_1097)">
<path d="M2176.69 2536.1H2228.77V2484.02H2176.69V2536.1Z" fill="#E20077"/>
</g>
<path d="M1917.04 2278.74H1969.12V2226.66H1917.04V2278.74Z" fill="#FBB016"/>
<path d="M1435.94 1972.67H1383.86V1920.59H1435.94V1972.67Z" fill="#E20077"/>
<path d="M1435.94 2024.21H1383.86V1972.13H1435.94V2024.21Z" fill="#E20077"/>
<path d="M1488 2024.21H1435.92V1972.13H1488V2024.21ZM1331.81 2024.21H1383.89V1972.13H1331.81V2024.21Z" fill="#E20077"/>
<path d="M1487.97 2074.74H1540.05V2022.66H1487.97V2074.74ZM1435.94 2074.74H1383.86V2022.66H1435.94V2074.74Z" fill="#E20077"/>
<path d="M1488 2074.74H1435.92V2022.66H1488V2074.74ZM1331.81 2074.74H1383.89V2022.66H1331.81V2074.74Z" fill="#E20077"/>
<path d="M1279.75 2074.74H1331.83V2022.66H1279.75V2074.74ZM1487.97 2126.28H1540.05V2074.2H1487.97V2126.28ZM1435.94 2126.28H1383.86V2074.2H1435.94V2126.28Z" fill="#E20077"/>
<path d="M1279.75 2126.28H1331.83V2074.2H1279.75V2126.28ZM1227.72 2126.28H1175.64V2074.2H1227.72V2126.28Z" fill="#FBB016"/>
<path d="M1487.97 2177.82H1540.05V2125.74H1487.97V2177.82ZM1435.94 2177.82H1383.86V2125.74H1435.94V2177.82ZM1279.75 2177.82H1331.83V2125.74H1279.75V2177.82Z" fill="#E20077"/>
<path d="M1279.78 2177.82H1227.69V2125.74H1279.78V2177.82Z" fill="#FBB016"/>
<path d="M1799.83 2024.88H1747.75V1972.8H1799.83V2024.88Z" fill="#4DD973"/>
<path d="M1488 2229.36H1435.92V2177.28H1488V2229.36Z" fill="#E20077"/>
<path d="M1488 2177.82H1435.92V2125.74H1488V2177.82ZM1383.91 2177.82H1331.83V2125.74H1383.91V2177.82Z" fill="#E20077"/>
<path d="M1331.81 2229.36H1383.89V2177.28H1331.81V2229.36Z" fill="#FBB016"/>
<path d="M1279.75 2229.36H1331.83V2177.28H1279.75V2229.36Z" fill="#E20077"/>
<path d="M1799.8 2075.41H1851.88V2023.33H1799.8V2075.41ZM1747.77 2075.41H1695.69V2023.33H1747.77V2075.41Z" fill="#FBB016"/>
<path d="M1643.63 2075.41H1695.71V2023.33H1643.63V2075.41ZM1851.85 2126.95H1903.94V2074.87H1851.85V2126.95Z" fill="#4DD973"/>
<path d="M1643.63 2126.95H1695.71V2074.87H1643.63V2126.95Z" fill="#4DD973"/>
<path d="M1591.58 2126.95H1643.66V2074.87H1591.58V2126.95ZM1747.77 2178.49H1695.69V2126.41H1747.77V2178.49Z" fill="#4DD973"/>
<path d="M1799.83 2230.03H1747.74V2177.95H1799.83V2230.03ZM1591.58 2230.03H1643.66V2177.95H1591.58V2230.03Z" fill="#FBB016"/>
<path d="M1643.63 2280.56H1695.71V2228.48H1643.63V2280.56Z" fill="#5547FF"/>
<path d="M1591.6 2280.56H1539.52V2228.48H1591.6V2280.56ZM1435.41 2280.56H1487.49V2228.48H1435.41V2280.56Z" fill="#E20077"/>
<path d="M1383.38 2280.56H1331.3V2228.48H1383.38V2280.56Z" fill="#5547FF"/>
<path d="M1747.77 2332.1H1695.69V2280.02H1747.77V2332.1Z" fill="#4DD973"/>
<path d="M1591.58 2332.1H1643.66V2280.02H1591.58V2332.1ZM1539.55 2332.1H1487.46V2280.02H1539.55V2332.1ZM1383.35 2332.1H1435.44V2280.02H1383.35V2332.1Z" fill="#E20077"/>
<path d="M1799.83 2383.64H1747.74V2331.56H1799.83V2383.64ZM1643.63 2383.64H1695.71V2331.56H1643.63V2383.64Z" fill="#5547FF"/>
<path d="M1591.6 2383.64H1539.52V2331.56H1591.6V2383.64ZM1435.41 2383.64H1487.49V2331.56H1435.41V2383.64Z" fill="#FBB016"/>
<path d="M1799.8 2435.18H1851.88V2383.1H1799.8V2435.18Z" fill="#5547FF"/>
<path d="M1747.77 2435.18H1695.69V2383.1H1747.77V2435.18Z" fill="#4DD973"/>
<path d="M1591.6 2435.18H1539.52V2383.1H1591.6V2435.18ZM1435.41 2435.18H1487.49V2383.1H1435.41V2435.18Z" fill="#FBB016"/>
<mask id="mask16_298_1097" style="mask-type:luminance" maskUnits="userSpaceOnUse" x="1746" y="2433" width="54" height="52">
<path d="M1746.67 2433.33H1800V2484.33H1746.67V2433.33Z" fill="white"/>
</mask>
<g mask="url(#mask16_298_1097)">
<path d="M1799.83 2485.71H1747.75V2433.63H1799.83V2485.71Z" fill="#5547FF"/>
</g>
<mask id="mask17_298_1097" style="mask-type:luminance" maskUnits="userSpaceOnUse" x="1590" y="2433" width="54" height="52">
<path d="M1590.67 2433.33H1644V2484.33H1590.67V2433.33Z" fill="white"/>
</mask>
<g mask="url(#mask17_298_1097)">
<path d="M1591.58 2485.71H1643.66V2433.63H1591.58V2485.71Z" fill="#4DD973"/>
</g>
<mask id="mask18_298_1097" style="mask-type:luminance" maskUnits="userSpaceOnUse" x="1538" y="2433" width="54" height="52">
<path d="M1538.67 2433.33H1592V2484.33H1538.67V2433.33Z" fill="white"/>
</mask>
<g mask="url(#mask18_298_1097)">
<path d="M1591.6 2485.71H1539.52V2433.63H1591.6V2485.71Z" fill="#FBB016"/>
</g>
<mask id="mask19_298_1097" style="mask-type:luminance" maskUnits="userSpaceOnUse" x="1382" y="2433" width="54" height="52">
<path d="M1382.67 2433.33H1436V2484.33H1382.67V2433.33Z" fill="white"/>
</mask>
<g mask="url(#mask19_298_1097)">
<path d="M1383.35 2485.71H1435.44V2433.63H1383.35V2485.71Z" fill="#FBB016"/>
</g>
<path d="M1123.7 2074.74H1175.79V2022.66H1123.7V2074.74Z" fill="#FBB016"/>
<path d="M284.286 1973.63H232.203V1921.54H284.286V1973.63Z" fill="#E20077"/>
</svg>
