<svg width="1423" height="622" viewBox="0 0 1423 622" fill="none" xmlns="http://www.w3.org/2000/svg">
<path d="M0 622H1423V0H0V622Z" fill="#161616"/>
<path d="M324.24 316.75H272.156V264.667H324.24V316.75Z" fill="#E20077"/>
<path d="M324.24 368.291H272.156V316.208H324.24V368.291Z" fill="#E20077"/>
<path d="M376.297 368.291H324.213V316.208H376.297V368.291ZM220.104 368.291H272.182V316.208H220.104V368.291Z" fill="#E20077"/>
<path d="M376.271 418.823H428.354V366.739H376.271V418.823ZM324.24 418.823H272.156V366.739H324.24V418.823Z" fill="#E20077"/>
<path d="M376.297 418.823H324.213V366.739H376.297V418.823ZM220.104 418.823H272.182V366.739H220.104V418.823Z" fill="#E20077"/>
<path d="M168.047 418.823H220.13V366.739H168.047V418.823ZM376.271 470.359H428.354V418.276H376.271V470.359ZM324.24 470.359H272.156V418.276H324.24V470.359Z" fill="#E20077"/>
<path d="M168.047 470.359H220.13V418.276H168.047V470.359ZM116.016 470.359H63.9375V418.276H116.016V470.359Z" fill="#FBB016"/>
<path d="M376.271 521.901H428.354V469.817H376.271V521.901ZM324.24 521.901H272.156V469.817H324.24V521.901ZM168.047 521.901H220.13V469.817H168.047V521.901Z" fill="#E20077"/>
<path d="M168.073 521.901H115.989V469.817H168.073V521.901Z" fill="#FBB016"/>
<path d="M688.125 368.958H636.042V316.875H688.125V368.958Z" fill="#4DD973"/>
<path d="M376.297 573.443H324.213V521.359H376.297V573.443Z" fill="#E20077"/>
<path d="M376.297 521.901H324.214V469.817H376.297V521.901ZM272.208 521.901H220.125V469.817H272.208V521.901Z" fill="#E20077"/>
<path d="M220.104 573.443H272.182V521.359H220.104V573.443Z" fill="#FBB016"/>
<path d="M168.047 573.443H220.13V521.359H168.047V573.443Z" fill="#E20077"/>
<path d="M688.094 419.49H740.177V367.406H688.094V419.49ZM636.068 419.49H583.984V367.406H636.068V419.49Z" fill="#FBB016"/>
<path d="M531.927 419.49H584.01V367.406H531.927V419.49ZM740.151 471.031H792.234V418.948H740.151V471.031Z" fill="#4DD973"/>
<path d="M531.927 471.031H584.01V418.948H531.927V471.031Z" fill="#4DD973"/>
<path d="M479.875 471.031H531.958V418.948H479.875V471.031ZM636.068 522.568H583.984V470.484H636.068V522.568Z" fill="#4DD973"/>
<path d="M688.125 574.109H636.042V522.026H688.125V574.109ZM479.875 574.109H531.958V522.026H479.875V574.109Z" fill="#FBB016"/>
<mask id="mask0_303_1180" style="mask-type:luminance" maskUnits="userSpaceOnUse" x="530" y="572" width="55" height="50">
<path d="M530.963 572.078H584.297V621.745H530.963V572.078Z" fill="white"/>
</mask>
<g mask="url(#mask0_303_1180)">
<path d="M531.927 624.641H584.01V572.558H531.927V624.641Z" fill="#5547FF"/>
</g>
<mask id="mask1_303_1180" style="mask-type:luminance" maskUnits="userSpaceOnUse" x="426" y="572" width="55" height="50">
<path d="M426.963 572.078H480.297V621.745H426.963V572.078Z" fill="white"/>
</mask>
<g mask="url(#mask1_303_1180)">
<path d="M479.901 624.641H427.817V572.558H479.901V624.641Z" fill="#E20077"/>
</g>
<mask id="mask2_303_1180" style="mask-type:luminance" maskUnits="userSpaceOnUse" x="322" y="572" width="55" height="50">
<path d="M322.963 572.078H376.297V621.745H322.963V572.078Z" fill="white"/>
</mask>
<g mask="url(#mask2_303_1180)">
<path d="M323.708 624.641H375.786V572.558H323.708V624.641Z" fill="#E20077"/>
</g>
<mask id="mask3_303_1180" style="mask-type:luminance" maskUnits="userSpaceOnUse" x="218" y="572" width="55" height="50">
<path d="M218.963 572.078H272.297V621.745H218.963V572.078Z" fill="white"/>
</mask>
<g mask="url(#mask3_303_1180)">
<path d="M271.677 624.641H219.594V572.558H271.677V624.641Z" fill="#5547FF"/>
</g>
<path d="M12 418.823H64.0833V366.739H12V418.823Z" fill="#FBB016"/>
<path d="M954.906 110.083H902.823V58H954.906V110.083Z" fill="#E20077"/>
<path d="M954.906 161.625H902.823V109.542H954.906V161.625Z" fill="#E20077"/>
<path d="M1006.96 161.625H954.88V109.542H1006.96V161.625ZM850.771 161.625H902.849V109.542H850.771V161.625Z" fill="#E20077"/>
<path d="M1006.94 212.156H1059.02V160.073H1006.94V212.156ZM954.906 212.156H902.823V160.073H954.906V212.156Z" fill="#E20077"/>
<path d="M1006.96 212.156H954.88V160.073H1006.96V212.156ZM850.771 212.156H902.849V160.073H850.771V212.156Z" fill="#E20077"/>
<path d="M798.713 212.156H850.797V160.073H798.713V212.156ZM1006.94 263.693H1059.02V211.609H1006.94V263.693ZM954.906 263.693H902.823V211.609H954.906V263.693Z" fill="#E20077"/>
<path d="M798.713 263.693H850.797V211.609H798.713V263.693ZM746.682 263.693H694.604V211.609H746.682V263.693Z" fill="#FBB016"/>
<path d="M1006.94 315.234H1059.02V263.151H1006.94V315.234ZM954.906 315.234H902.823V263.151H954.906V315.234ZM798.713 315.234H850.797V263.151H798.713V315.234Z" fill="#E20077"/>
<path d="M798.74 315.234H746.656V263.151H798.74V315.234Z" fill="#FBB016"/>
<path d="M1318.79 162.291H1266.71V110.208H1318.79V162.291Z" fill="#4DD973"/>
<path d="M1006.96 366.776H954.88V314.692H1006.96V366.776Z" fill="#E20077"/>
<path d="M1006.96 315.234H954.88V263.151H1006.96V315.234ZM902.875 315.234H850.792V263.151H902.875V315.234Z" fill="#E20077"/>
<path d="M850.771 366.776H902.849V314.692H850.771V366.776Z" fill="#FBB016"/>
<path d="M798.713 366.776H850.797V314.692H798.713V366.776Z" fill="#E20077"/>
<path d="M1318.76 212.823H1370.84V160.739H1318.76V212.823ZM1266.73 212.823H1214.65V160.739H1266.73V212.823Z" fill="#FBB016"/>
<path d="M1162.59 212.823H1214.68V160.739H1162.59V212.823ZM1370.82 264.364H1422.9V212.281H1370.82V264.364Z" fill="#4DD973"/>
<path d="M1162.59 264.365H1214.68V212.281H1162.59V264.365Z" fill="#4DD973"/>
<path d="M1110.54 264.365H1162.62V212.281H1110.54V264.365ZM1266.73 315.901H1214.65V263.818H1266.73V315.901Z" fill="#4DD973"/>
<path d="M1318.79 367.443H1266.71V315.359H1318.79V367.443ZM1110.54 367.443H1162.62V315.359H1110.54V367.443Z" fill="#FBB016"/>
<path d="M1162.59 417.974H1214.68V365.891H1162.59V417.974Z" fill="#5547FF"/>
<path d="M1110.57 417.974H1058.48V365.891H1110.57V417.974ZM954.375 417.974H1006.45V365.891H954.375V417.974Z" fill="#E20077"/>
<path d="M902.344 417.974H850.26V365.891H902.344V417.974Z" fill="#5547FF"/>
<path d="M1266.73 469.51H1214.65V417.432H1266.73V469.51Z" fill="#4DD973"/>
<path d="M1110.54 469.51H1162.62V417.432H1110.54V469.51ZM1058.51 469.51H1006.43V417.432H1058.51V469.51ZM902.317 469.51H954.401V417.432H902.317V469.51Z" fill="#E20077"/>
<path d="M1318.79 521.052H1266.71V468.969H1318.79V521.052ZM1162.59 521.052H1214.68V468.969H1162.59V521.052Z" fill="#5547FF"/>
<path d="M1110.57 521.052H1058.48V468.969H1110.57V521.052ZM954.375 521.052H1006.45V468.969H954.375V521.052Z" fill="#FBB016"/>
<path d="M1318.76 572.594H1370.84V520.51H1318.76V572.594Z" fill="#5547FF"/>
<path d="M1266.73 572.594H1214.65V520.51H1266.73V572.594Z" fill="#4DD973"/>
<path d="M1110.57 572.594H1058.48V520.51H1110.57V572.594ZM954.375 572.594H1006.45V520.51H954.375V572.594Z" fill="#FBB016"/>
<mask id="mask4_303_1180" style="mask-type:luminance" maskUnits="userSpaceOnUse" x="1265" y="570" width="54" height="52">
<path d="M1265.63 570.745H1318.96V621.745H1265.63V570.745Z" fill="white"/>
</mask>
<g mask="url(#mask4_303_1180)">
<path d="M1318.79 623.12H1266.71V571.042H1318.79V623.12Z" fill="#5547FF"/>
</g>
<mask id="mask5_303_1180" style="mask-type:luminance" maskUnits="userSpaceOnUse" x="1109" y="570" width="54" height="52">
<path d="M1109.63 570.745H1162.96V621.745H1109.63V570.745Z" fill="white"/>
</mask>
<g mask="url(#mask5_303_1180)">
<path d="M1110.54 623.12H1162.62V571.042H1110.54V623.12Z" fill="#4DD973"/>
</g>
<mask id="mask6_303_1180" style="mask-type:luminance" maskUnits="userSpaceOnUse" x="1057" y="570" width="54" height="52">
<path d="M1057.63 570.745H1110.96V621.745H1057.63V570.745Z" fill="white"/>
</mask>
<g mask="url(#mask6_303_1180)">
<path d="M1110.57 623.12H1058.48V571.042H1110.57V623.12Z" fill="#FBB016"/>
</g>
<mask id="mask7_303_1180" style="mask-type:luminance" maskUnits="userSpaceOnUse" x="901" y="570" width="54" height="52">
<path d="M901.63 570.745H954.963V621.745H901.63V570.745Z" fill="white"/>
</mask>
<g mask="url(#mask7_303_1180)">
<path d="M902.317 623.12H954.401V571.042H902.317V623.12Z" fill="#FBB016"/>
</g>
<path d="M642.667 212.156H694.75V160.073H642.667V212.156Z" fill="#FBB016"/>
</svg>
