<svg width="2560" height="132" viewBox="0 0 2560 132" fill="none" xmlns="http://www.w3.org/2000/svg">
<path d="M0 34.2241V97.7814L33.8594 131.636L99.4948 66.0002L33.8594 0.364746L0 34.2241Z" fill="#161616"/>
<path d="M99.2603 66.0002L164.901 0.364746L230.531 66.0002L164.896 131.636L99.2603 66.0002Z" fill="#161616"/>
<path d="M230.302 66.0002L295.938 0.364746L361.573 66.0002L295.938 131.636L230.302 66.0002Z" fill="#161616"/>
<path d="M361.338 66.0002L426.979 0.364746L492.609 66.0002L426.974 131.636L361.338 66.0002Z" fill="#161616"/>
<path d="M492.38 66.0002L558.016 0.364746L623.651 66.0002L558.016 131.636L492.38 66.0002ZM754.458 66.0002L820.094 0.364746L885.729 66.0002L820.094 131.636L754.458 66.0002Z" fill="#161616"/>
<path d="M885.495 66.0002L951.135 0.364746L1016.77 66.0002L951.13 131.636L885.495 66.0002Z" fill="#161616"/>
<path d="M1016.54 66.0002L1082.17 0.364746L1147.81 66.0002L1082.17 131.636L1016.54 66.0002Z" fill="#161616"/>
<path d="M1147.57 66.0002L1213.21 0.364746L1278.84 66.0002L1213.21 131.636L1147.57 66.0002Z" fill="#161616"/>
<path d="M1278.61 66.0002L1344.25 0.364746L1409.89 66.0002L1344.25 131.636L1278.61 66.0002Z" fill="#161616"/>
<path d="M1409.65 66.0002L1475.29 0.364746L1540.92 66.0002L1475.29 131.636L1409.65 66.0002Z" fill="#161616"/>
<path d="M1540.69 66.0002L1606.33 0.364746L1671.96 66.0002L1606.33 131.636L1540.69 66.0002Z" fill="#161616"/>
<path d="M1671.73 66.0002L1737.36 0.364746L1803 66.0002L1737.36 131.636L1671.73 66.0002Z" fill="#161616"/>
<path d="M1802.77 66.0002L1868.41 0.364746L1934.04 66.0002L1868.41 131.636L1802.77 66.0002Z" fill="#161616"/>
<path d="M1933.81 66.0002L1999.45 0.364746L2065.08 66.0002L1999.44 131.636L1933.81 66.0002ZM623.417 66.0002L689.052 0.364746L754.687 66.0002L689.052 131.636L623.417 66.0002Z" fill="#161616"/>
<path d="M1933.81 66.0002L1999.45 0.364746L2065.08 66.0002L1999.44 131.636L1933.81 66.0002Z" fill="#161616"/>
<path d="M2064.85 66.0002L2130.48 0.364746L2196.12 66.0002L2130.48 131.636L2064.85 66.0002Z" fill="#161616"/>
<path d="M2195.89 66.0002L2261.53 0.364746L2327.16 66.0002L2261.52 131.636L2195.89 66.0002Z" fill="#161616"/>
<path d="M2326.93 66.0002L2392.56 0.364746L2458.2 66.0002L2392.56 131.636L2326.93 66.0002Z" fill="#161616"/>
<path d="M2458 65.6354L2523.64 0L2589.27 65.6354L2523.64 131.271L2458 65.6354Z" fill="#161616"/>
</svg>
