<svg width="74" height="74" viewBox="0 0 74 74" fill="none" xmlns="http://www.w3.org/2000/svg">
<path d="M0.201813 37.0698C0.0903641 16.8201 16.4112 0.313328 36.6661 0.201851C56.9158 0.0904015 73.4226 16.4165 73.534 36.6662C73.6455 56.9159 57.3194 73.4226 37.0697 73.5341C16.8148 73.6456 0.313262 57.3195 0.201813 37.0698Z" fill="#161616"/>
<path d="M27.8918 57.2983C27.9981 50.1049 25.0797 40.3447 16.4435 40.2204L16.4269 37.1996C27.2155 36.6246 32.3251 47.9977 32.7563 57.2715L27.8918 57.2983Z" fill="#FBB016"/>
<path d="M32.5467 19.1572C32.2175 28.43 27.2335 39.8638 16.4339 39.4076L16.4173 36.3868C20.3433 36.1829 23.5351 34.108 25.2919 30.6087C27.0599 27.25 27.7184 22.9286 27.6822 19.184L32.5467 19.1572Z" fill="#FBB016"/>
<path d="M19.8925 35.7376L60.4439 35.5144L60.4707 40.3789L19.9192 40.6021L19.8925 35.7376Z" fill="#FBB016"/>
</svg>
